<svg xmlns="http://www.w3.org/2000/svg" width="500" height="338" viewBox="0 0 500 338">
    <g fill="#FFF" fill-rule="nonzero">
        <path d="M473.5 7a.5.5 0 0 1-1 0V1a.5.5 0 0 1 1 0v6zm0 12a.5.5 0 0 1-1 0v-6a.5.5 0 0 1 1 0v6zm0 12a.5.5 0 0 1-1 0v-6a.5.5 0 0 1 1 0v6zm0 12a.5.5 0 0 1-1 0v-6a.5.5 0 0 1 1 0v6zm0 12a.5.5 0 0 1-1 0v-6a.5.5 0 0 1 1 0v6zm0 12a.5.5 0 0 1-1 0v-6a.5.5 0 0 1 1 0v6zm0 12a.5.5 0 0 1-1 0v-6a.5.5 0 0 1 1 0v6zm0 12a.5.5 0 0 1-1 0v-6a.5.5 0 0 1 1 0v6zm0 12a.5.5 0 0 1-1 0v-6a.5.5 0 0 1 1 0v6zm0 12a.5.5 0 0 1-1 0v-6a.5.5 0 0 1 1 0v6zm0 12a.5.5 0 0 1-1 0v-6a.5.5 0 0 1 1 0v6zm0 12a.5.5 0 0 1-1 0v-6a.5.5 0 0 1 1 0v6zm0 12a.5.5 0 0 1-1 0v-6a.5.5 0 0 1 1 0v6zm0 12a.5.5 0 0 1-1 0v-6a.5.5 0 0 1 1 0v6zm0 12a.5.5 0 0 1-1 0v-6a.5.5 0 0 1 1 0v6zm0 12a.5.5 0 0 1-1 0v-6a.5.5 0 0 1 1 0v6zm0 12a.5.5 0 0 1-1 0v-6a.5.5 0 0 1 1 0v6zm0 12a.5.5 0 0 1-1 0v-6a.5.5 0 0 1 1 0v6zm0 12a.5.5 0 0 1-1 0v-6a.5.5 0 0 1 1 0v6zm0 12a.5.5 0 0 1-1 0v-6a.5.5 0 0 1 1 0v6zm0 12a.5.5 0 0 1-1 0v-6a.5.5 0 0 1 1 0v6zm0 12a.5.5 0 0 1-1 0v-6a.5.5 0 0 1 1 0v6zm0 12a.5.5 0 0 1-1 0v-6a.5.5 0 0 1 1 0v6zm0 12a.5.5 0 0 1-1 0v-6a.5.5 0 0 1 1 0v6zm0 12a.5.5 0 0 1-1 0v-6a.5.5 0 0 1 1 0v6zm0 12a.5.5 0 0 1-1 0v-6a.5.5 0 0 1 1 0v6zm0 12a.5.5 0 0 1-1 0v-6a.5.5 0 0 1 1 0v6zm0 12a.5.5 0 0 1-1 0v-6a.5.5 0 0 1 1 0v6zm-6.5 6.5a.5.5 0 0 1 0-1h6a.5.5 0 0 1 0 1h-6zm-12 0a.5.5 0 0 1 0-1h6a.5.5 0 0 1 0 1h-6zm-12 0a.5.5 0 0 1 0-1h6a.5.5 0 0 1 0 1h-6zm-12 0a.5.5 0 0 1 0-1h6a.5.5 0 0 1 0 1h-6zm-12 0a.5.5 0 0 1 0-1h6a.5.5 0 0 1 0 1h-6zm-12 0a.5.5 0 0 1 0-1h6a.5.5 0 0 1 0 1h-6zm-12 0a.5.5 0 0 1 0-1h6a.5.5 0 0 1 0 1h-6zm-12 0a.5.5 0 0 1 0-1h6a.5.5 0 0 1 0 1h-6zm-12 0a.5.5 0 0 1 0-1h6a.5.5 0 0 1 0 1h-6zm-12 0a.5.5 0 0 1 0-1h6a.5.5 0 0 1 0 1h-6zm-12 0a.5.5 0 0 1 0-1h6a.5.5 0 0 1 0 1h-6zm-12 0a.5.5 0 0 1 0-1h6a.5.5 0 0 1 0 1h-6zm-12 0a.5.5 0 0 1 0-1h6a.5.5 0 0 1 0 1h-6zm-12 0a.5.5 0 0 1 0-1h6a.5.5 0 0 1 0 1h-6zm-12 0a.5.5 0 0 1 0-1h6a.5.5 0 0 1 0 1h-6zm-12 0a.5.5 0 0 1 0-1h6a.5.5 0 0 1 0 1h-6zm-12 0a.5.5 0 0 1 0-1h6a.5.5 0 0 1 0 1h-6zm-12 0a.5.5 0 0 1 0-1h6a.5.5 0 0 1 0 1h-6zm-12 0a.5.5 0 0 1 0-1h6a.5.5 0 0 1 0 1h-6zm-12 0a.5.5 0 0 1 0-1h6a.5.5 0 0 1 0 1h-6zm-12 0a.5.5 0 0 1 0-1h6a.5.5 0 0 1 0 1h-6zm-12 0a.5.5 0 0 1 0-1h6a.5.5 0 0 1 0 1h-6zm-12 0a.5.5 0 0 1 0-1h6a.5.5 0 0 1 0 1h-6zm-12 0a.5.5 0 0 1 0-1h6a.5.5 0 0 1 0 1h-6zm-12 0a.5.5 0 0 1 0-1h6a.5.5 0 0 1 0 1h-6zm-12 0a.5.5 0 0 1 0-1h6a.5.5 0 0 1 0 1h-6zm-12 0a.5.5 0 0 1 0-1h6a.5.5 0 0 1 0 1h-6zm-12 0a.5.5 0 0 1 0-1h6a.5.5 0 0 1 0 1h-6zm-12 0a.5.5 0 0 1 0-1h6a.5.5 0 0 1 0 1h-6zm-12 0a.5.5 0 0 1 0-1h6a.5.5 0 0 1 0 1h-6zm-12 0a.5.5 0 0 1 0-1h6a.5.5 0 0 1 0 1h-6zm-12 0a.5.5 0 0 1 0-1h6a.5.5 0 0 1 0 1h-6zm-12 0a.5.5 0 0 1 0-1h6a.5.5 0 0 1 0 1h-6zm-12 0a.5.5 0 0 1 0-1h6a.5.5 0 0 1 0 1h-6zm-12 0a.5.5 0 0 1 0-1h6a.5.5 0 0 1 0 1h-6zm-12 0a.5.5 0 0 1 0-1h6a.5.5 0 0 1 0 1h-6zm-12 0a.5.5 0 0 1 0-1h6a.5.5 0 0 1 0 1h-6zm-12 0a.5.5 0 0 1 0-1h6a.5.5 0 0 1 0 1h-6zm-12 0a.5.5 0 0 1 0-1h6a.5.5 0 0 1 0 1h-6zM.5 335a.5.5 0 0 1 1 0v2l-.5-.5h4a.5.5 0 0 1 0 1H.5V335zm0-12a.5.5 0 0 1 1 0v6a.5.5 0 0 1-1 0v-6zm0-12a.5.5 0 0 1 1 0v6a.5.5 0 0 1-1 0v-6zm0-12a.5.5 0 0 1 1 0v6a.5.5 0 0 1-1 0v-6zm0-12a.5.5 0 0 1 1 0v6a.5.5 0 0 1-1 0v-6zm0-12a.5.5 0 0 1 1 0v6a.5.5 0 0 1-1 0v-6zm0-12a.5.5 0 0 1 1 0v6a.5.5 0 0 1-1 0v-6zm0-12a.5.5 0 0 1 1 0v6a.5.5 0 0 1-1 0v-6zm0-12a.5.5 0 0 1 1 0v6a.5.5 0 0 1-1 0v-6zm0-12a.5.5 0 0 1 1 0v6a.5.5 0 0 1-1 0v-6zm0-12a.5.5 0 0 1 1 0v6a.5.5 0 0 1-1 0v-6zm0-12a.5.5 0 0 1 1 0v6a.5.5 0 0 1-1 0v-6zm0-12a.5.5 0 0 1 1 0v6a.5.5 0 0 1-1 0v-6zm0-12a.5.5 0 0 1 1 0v6a.5.5 0 0 1-1 0v-6zm0-12a.5.5 0 0 1 1 0v6a.5.5 0 0 1-1 0v-6zm0-12a.5.5 0 0 1 1 0v6a.5.5 0 0 1-1 0v-6zm0-12a.5.5 0 0 1 1 0v6a.5.5 0 0 1-1 0v-6zm0-12a.5.5 0 0 1 1 0v6a.5.5 0 0 1-1 0v-6zm0-12a.5.5 0 0 1 1 0v6a.5.5 0 0 1-1 0v-6zm0-12a.5.5 0 0 1 1 0v6a.5.5 0 0 1-1 0v-6zm0-12a.5.5 0 1 1 1 0v6a.5.5 0 0 1-1 0v-6zm0-12a.5.5 0 1 1 1 0v6a.5.5 0 1 1-1 0v-6zm0-12a.5.5 0 1 1 1 0v6a.5.5 0 1 1-1 0v-6zm0-12a.5.5 0 1 1 1 0v6a.5.5 0 1 1-1 0v-6zm0-12a.5.5 0 1 1 1 0v6a.5.5 0 1 1-1 0v-6zm0-12a.5.5 0 1 1 1 0v6a.5.5 0 1 1-1 0v-6zm0-12a.5.5 0 1 1 1 0v6a.5.5 0 1 1-1 0v-6zm0-12a.5.5 0 1 1 1 0v6a.5.5 0 1 1-1 0v-6zM3 .5a.5.5 0 0 1 0 1H1l.5-.5v4a.5.5 0 0 1-1 0V.5H3zm12 0a.5.5 0 1 1 0 1H9a.5.5 0 0 1 0-1h6zm12 0a.5.5 0 1 1 0 1h-6a.5.5 0 1 1 0-1h6zm12 0a.5.5 0 1 1 0 1h-6a.5.5 0 1 1 0-1h6zm12 0a.5.5 0 1 1 0 1h-6a.5.5 0 1 1 0-1h6zm12 0a.5.5 0 1 1 0 1h-6a.5.5 0 1 1 0-1h6zm12 0a.5.5 0 1 1 0 1h-6a.5.5 0 1 1 0-1h6zm12 0a.5.5 0 1 1 0 1h-6a.5.5 0 1 1 0-1h6zm12 0a.5.5 0 1 1 0 1h-6a.5.5 0 1 1 0-1h6zm12 0a.5.5 0 0 1 0 1h-6a.5.5 0 0 1 0-1h6zm12 0a.5.5 0 0 1 0 1h-6a.5.5 0 0 1 0-1h6zm12 0a.5.5 0 0 1 0 1h-6a.5.5 0 0 1 0-1h6zm12 0a.5.5 0 0 1 0 1h-6a.5.5 0 0 1 0-1h6zm12 0a.5.5 0 0 1 0 1h-6a.5.5 0 0 1 0-1h6zm12 0a.5.5 0 0 1 0 1h-6a.5.5 0 0 1 0-1h6zm12 0a.5.5 0 0 1 0 1h-6a.5.5 0 0 1 0-1h6zm12 0a.5.5 0 0 1 0 1h-6a.5.5 0 0 1 0-1h6zm12 0a.5.5 0 0 1 0 1h-6a.5.5 0 0 1 0-1h6zm12 0a.5.5 0 0 1 0 1h-6a.5.5 0 0 1 0-1h6zm12 0a.5.5 0 0 1 0 1h-6a.5.5 0 0 1 0-1h6zm12 0a.5.5 0 0 1 0 1h-6a.5.5 0 0 1 0-1h6zm12 0a.5.5 0 0 1 0 1h-6a.5.5 0 0 1 0-1h6zm12 0a.5.5 0 0 1 0 1h-6a.5.5 0 0 1 0-1h6zm12 0a.5.5 0 0 1 0 1h-6a.5.5 0 0 1 0-1h6zm12 0a.5.5 0 0 1 0 1h-6a.5.5 0 0 1 0-1h6zm12 0a.5.5 0 0 1 0 1h-6a.5.5 0 0 1 0-1h6zm12 0a.5.5 0 0 1 0 1h-6a.5.5 0 0 1 0-1h6zm12 0a.5.5 0 0 1 0 1h-6a.5.5 0 0 1 0-1h6zm12 0a.5.5 0 0 1 0 1h-6a.5.5 0 0 1 0-1h6zm12 0a.5.5 0 0 1 0 1h-6a.5.5 0 0 1 0-1h6zm12 0a.5.5 0 0 1 0 1h-6a.5.5 0 0 1 0-1h6zm12 0a.5.5 0 0 1 0 1h-6a.5.5 0 0 1 0-1h6zm12 0a.5.5 0 0 1 0 1h-6a.5.5 0 0 1 0-1h6zm12 0a.5.5 0 0 1 0 1h-6a.5.5 0 0 1 0-1h6zm12 0a.5.5 0 0 1 0 1h-6a.5.5 0 0 1 0-1h6zm12 0a.5.5 0 0 1 0 1h-6a.5.5 0 0 1 0-1h6zm12 0a.5.5 0 0 1 0 1h-6a.5.5 0 0 1 0-1h6zm12 0a.5.5 0 0 1 0 1h-6a.5.5 0 0 1 0-1h6zm12 0a.5.5 0 0 1 0 1h-6a.5.5 0 0 1 0-1h6zm12 0a.5.5 0 0 1 0 1h-6a.5.5 0 0 1 0-1h6zM465.75 321.5h-393v-259h393v259zm-1-258h-391v257h391v-257zM495.355 240.75V98.912l3.272 3.11c.218.215.873.215 1.091 0a.644.644 0 0 0 0-1.072l-4.69-4.29a1.005 1.005 0 0 0-1.092 0l-4.69 4.29c-.328.215-.328.75 0 .965.327.215.763.215 1.09 0l3.382-3.11v141.836c0 .536.327.858.764.858.436 0 .873-.215.873-.75z"/>
        <path d="M241.75 95.5v186h-145v-186h145zm-144 1v184h143v-184h-143z"/>
    </g>
</svg>
