<svg xmlns="http://www.w3.org/2000/svg" width="177" height="261" viewBox="0 0 177 261">
    <path fill="#000" fill-rule="evenodd" d="M-412.685 208.157h-4.327c-13.36 0-24.365-10.093-25.824-23.079h-88.487c-14.353 0-25.988-11.649-25.988-26.02 0-14.37 11.635-26.019 25.988-26.019h148.503c-14.353 0-25.988-11.65-25.988-26.02 0-12.908 9.389-23.622 21.703-25.667a26.307 26.307 0 0 1-.206-3.293c0-14.37 11.635-26.02 25.988-26.02h148.503c-14.353 0-25.988-11.65-25.988-26.02S-227.173 0-212.82 0h363.832C165.365 0 177 11.65 177 26.02s-11.635 26.02-25.988 26.02H2.509c14.353 0 25.988 11.649 25.988 26.019 0 12.909-9.39 23.622-21.703 25.667l.042.352h77.35c14.352 0 25.988 11.65 25.988 26.02s-11.636 26.02-25.988 26.02H46.414c-18.097 0-32.767 11.649-32.767 26.02 0 9.58 7.425 18.253 22.275 26.019 14.353 0 25.988 11.65 25.988 26.02s-11.635 26.019-25.988 26.019h-192.068a20.952 20.952 0 0 0-.207 2.941c0 9.58 7.425 18.254 22.275 26.02 14.353 0 25.988 11.65 25.988 26.02s-11.635 26.019-25.988 26.019h-308.144c-14.352 0-25.988-11.65-25.988-26.02s11.636-26.02 25.988-26.02h-144.79c-14.353 0-25.988-11.649-25.988-26.019s11.635-26.02 25.988-26.02h148.503c14.353 0 25.988-11.649 25.988-26.019 0-.994-.056-1.976-.164-2.941zM150.86 156.28c-14.436 0-26.14-11.722-26.14-26.183 0-14.46 11.704-26.183 26.14-26.183 14.437 0 26.14 11.722 26.14 26.183 0 14.46-11.703 26.183-26.14 26.183z" opacity=".08"/>
</svg>
