<svg xmlns="http://www.w3.org/2000/svg" width="147" height="261" viewBox="0 0 147 261">
    <path fill="#000" fill-rule="evenodd" d="M589.685 208.157h4.327c13.36 0 24.365-10.093 25.824-23.079h88.487c14.353 0 25.988-11.649 25.988-26.02 0-14.37-11.635-26.019-25.988-26.019H559.82c14.353 0 25.988-11.65 25.988-26.02 0-12.908-9.389-23.622-21.703-25.667.136-1.079.206-2.178.206-3.293 0-14.37-11.635-26.02-25.988-26.02H389.82c14.353 0 25.988-11.65 25.988-26.02S404.173 0 389.82 0H25.988C11.635 0 0 11.65 0 26.02s11.635 26.02 25.988 26.02h148.503c-14.353 0-25.988 11.649-25.988 26.019 0 12.909 9.39 23.622 21.703 25.667l-.042.352h-77.35c-14.352 0-25.988 11.65-25.988 26.02s11.636 26.02 25.988 26.02h37.772c18.097 0 32.767 11.649 32.767 26.02 0 9.58-7.425 18.253-22.275 26.019-14.353 0-25.988 11.65-25.988 26.02s11.635 26.019 25.988 26.019h192.068c.137.965.207 1.947.207 2.941 0 9.58-7.425 18.254-22.275 26.02-14.353 0-25.988 11.65-25.988 26.02s11.635 26.019 25.988 26.019h308.144c14.352 0 25.988-11.65 25.988-26.02s-11.636-26.02-25.988-26.02h144.79c14.353 0 25.988-11.649 25.988-26.019s-11.635-26.02-25.988-26.02H615.509c-14.353 0-25.988-11.649-25.988-26.019 0-.994.056-1.976.164-2.941zM26.14 156.28c14.436 0 26.14-11.722 26.14-26.183 0-14.46-11.704-26.183-26.14-26.183-14.437 0-26.14 11.722-26.14 26.183 0 14.46 11.703 26.183 26.14 26.183z" opacity=".08"/>
</svg>
