<svg xmlns="http://www.w3.org/2000/svg" xmlns:xlink="http://www.w3.org/1999/xlink" width="140" height="88" viewBox="0 0 140 88">
    <defs>
        <path id="a" d="M0 .001h38.61v40H0z"/>
        <path id="c" d="M.389.771H39v40H.389z"/>
        <path id="e" d="M0 .771h38.61v40H0z"/>
    </defs>
    <g fill="none" fill-rule="evenodd">
        <path fill="#E1FFEC" d="M134.132 12.638c3.24 0 5.868 2.64 5.868 5.898 0 3.257-2.627 5.898-5.868 5.898h-33.533c3.24 0 5.868 2.64 5.868 5.898 0 3.257-2.627 5.898-5.868 5.898h18.443c3.24 0 5.868 2.64 5.868 5.898 0 3.257-2.627 5.898-5.868 5.898h-8.53c-4.086 0-7.398 2.64-7.398 5.897 0 2.172 1.676 4.138 5.03 5.898 3.24 0 5.868 2.64 5.868 5.898 0 3.257-2.627 5.898-5.868 5.898H38.563c-3.241 0-5.868-2.64-5.868-5.898 0-3.257 2.627-5.898 5.868-5.898H5.868c-3.24 0-5.868-2.64-5.868-5.898 0-3.257 2.627-5.897 5.868-5.897h33.533c3.241 0 5.868-2.641 5.868-5.898 0-3.258-2.627-5.898-5.868-5.898H18.443c-3.24 0-5.868-2.64-5.868-5.898 0-3.257 2.627-5.898 5.868-5.898h33.533c-3.24 0-5.868-2.64-5.868-5.898 0-3.257 2.627-5.898 5.868-5.898h82.156zm0 23.592c3.24 0 5.868 2.64 5.868 5.898 0 3.257-2.627 5.898-5.868 5.898-3.241 0-5.869-2.641-5.869-5.898 0-3.258 2.628-5.898 5.869-5.898z"/>
        <path fill="#1BD75F" fill-rule="nonzero" d="M117.513 40.928a1.013 1.013 0 0 1 .11 2.019l-.11.006h-6.854a1.012 1.012 0 0 1-.11-2.02l.11-.005h6.854zm5.301-6.553a1.012 1.012 0 0 1 .11 2.019l-.11.006h-14.398a1.012 1.012 0 0 1-.11-2.02l.11-.005h14.398zm5.869 0a1.013 1.013 0 0 1 .11 2.019l-.11.006h-1.862a1.013 1.013 0 0 1-.11-2.02l.11-.005h1.862zM24.311 59.464h6.854a1.012 1.012 0 0 1 .11 2.019l-.11.006h-6.854a1.013 1.013 0 0 1-.11-2.02l.11-.005h6.854-6.854zm-11.464-7.396h14.399a1.013 1.013 0 0 1 .11 2.02l-.11.005h-14.4a1.013 1.013 0 0 1-.11-2.019l.11-.006h14.4-14.4zm-8.422 0h3.54a1.013 1.013 0 0 1 .11 2.02l-.11.005h-3.54a1.013 1.013 0 0 1-.11-2.019l.11-.006h3.54-3.54z"/>
        <g>
            <path fill="#1BD75F" d="M66.556 50.65c-.162 0-.325-.038-.474-.116L31.58 32.589a1.027 1.027 0 0 1 0-1.822l34.5-17.945a1.028 1.028 0 0 1 1.503.91v35.89a1.026 1.026 0 0 1-1.027 1.028"/>
            <g transform="translate(30 11.677)">
                <mask id="b" fill="#fff">
                    <use xlink:href="#a"/>
                </mask>
                <path fill="#07AE44" d="M36.556.001c-.325 0-.65.076-.948.231L18.357 9.205l-17.25 8.973a2.054 2.054 0 0 0 0 3.646l17.25 8.972 17.25 8.973a2.052 2.052 0 0 0 2.015-.067 2.054 2.054 0 0 0 .989-1.757V2.056A2.056 2.056 0 0 0 36.556.001m0 2.055V37.945l-17.25-8.971-17.251-8.973 17.25-8.973 17.25-8.972" mask="url(#b)"/>
            </g>
            <path fill="#1BD75F" d="M73.417 50.65a1.027 1.027 0 0 1-1.027-1.027v-35.89a1.026 1.026 0 0 1 1.502-.911l34.501 17.945a1.029 1.029 0 0 1 0 1.822L73.891 50.534a1.021 1.021 0 0 1-.474.116"/>
            <path fill="#07AE44" d="M73.417 11.678a2.054 2.054 0 0 0-2.056 2.055V49.622a2.055 2.055 0 0 0 3.004 1.824l17.25-8.973 17.251-8.972a2.055 2.055 0 0 0 0-3.646l-17.25-8.973-17.25-8.973a2.054 2.054 0 0 0-.949-.23m0 2.054l17.25 8.972 17.25 8.973-17.25 8.973-17.25 8.971V13.733"/>
            <path fill="#FFF" d="M86 1.028H42v69.299h56v-57.3z"/>
            <path fill="#07AE44" fill-rule="nonzero" d="M86 0c.273 0 .534.108.727.301l12 12c.192.193.3.454.3.727v57.299c0 .567-.46 1.027-1.027 1.027H42c-.567 0-1.027-.46-1.027-1.027v-69.3C40.973.46 41.433 0 42 0h44zm-.425 2.055H43.028V69.3h53.945V13.453L85.575 2.055z"/>
            <path fill="#FFF" d="M107.918 70.599c-.17 0-.34-.042-.494-.127l-34.5-18.946a1.028 1.028 0 0 1 0-1.801l34.5-18.947a1.038 1.038 0 0 1 1.017.015c.313.186.504.522.504.885v37.894a1.026 1.026 0 0 1-1.027 1.027"/>
            <path fill="#07AE44" d="M107.917 29.622c-.34 0-.68.085-.988.254L89.68 39.35l-17.25 9.473a2.058 2.058 0 0 0-1.068 1.802c0 .75.41 1.44 1.067 1.801l17.25 9.473 17.251 9.474a2.05 2.05 0 0 0 2.035-.033 2.054 2.054 0 0 0 1.01-1.768V31.678a2.056 2.056 0 0 0-2.057-2.056m0 2.056v37.894l-17.25-9.474-17.25-9.473 17.25-9.474 17.25-9.473"/>
            <path fill="#FFF" d="M107.945 69.421c-.162 0-.325-.038-.475-.116L72.97 51.36a1.027 1.027 0 0 1 0-1.822l34.5-17.944a1.028 1.028 0 0 1 1.502.911v35.89a1.026 1.026 0 0 1-1.027 1.027"/>
            <g transform="translate(71 29.677)">
                <mask id="d" fill="#fff">
                    <use xlink:href="#c"/>
                </mask>
                <path fill="#07AE44" d="M36.945.771c-.324 0-.65.078-.947.233L18.747 9.976l-17.25 8.972a2.054 2.054 0 0 0 0 3.646l17.25 8.973 17.25 8.974a2.06 2.06 0 0 0 2.014-.067c.615-.373.99-1.04.99-1.757V2.828c0-.72-.375-1.385-.99-1.757a2.053 2.053 0 0 0-1.066-.3m0 2.056v35.89l-17.25-8.973-17.25-8.973 17.25-8.972 17.25-8.971" mask="url(#d)"/>
            </g>
            <path fill="#FFF" d="M32.055 69.421a1.027 1.027 0 0 1-1.027-1.027v-35.89a1.026 1.026 0 0 1 1.502-.91l34.5 17.943a1.027 1.027 0 0 1 0 1.822l-34.5 17.946c-.15.078-.313.116-.475.116"/>
            <g transform="translate(30 29.677)">
                <mask id="f" fill="#fff">
                    <use xlink:href="#e"/>
                </mask>
                <path fill="#07AE44" d="M2.055.771A2.058 2.058 0 0 0 0 2.828v35.89a2.056 2.056 0 0 0 3.003 1.824l17.25-8.973 17.25-8.974a2.054 2.054 0 0 0 0-3.646l-17.25-8.972-17.25-8.973a2.052 2.052 0 0 0-.948-.231m0 2.055l17.25 8.973 17.25 8.971-17.25 8.973-17.25 8.973V2.828" mask="url(#f)"/>
            </g>
            <path fill="#E1FFEC" d="M32.055 70.65a1.028 1.028 0 0 1-.606-1.857l35.249-25.747A5.566 5.566 0 0 1 70 41.969c1.196 0 2.337.373 3.302 1.077l35.249 25.747a1.027 1.027 0 0 1-.606 1.857h-75.89z"/>
            <path fill="#07AE44" d="M70 40.942c-1.415 0-2.767.44-3.908 1.275L49.815 54.105 30.843 67.963a2.053 2.053 0 1 0 1.212 3.714H107.944a2.055 2.055 0 0 0 1.213-3.714L90.185 54.105 73.908 42.217A6.579 6.579 0 0 0 70 40.942m0 2.055a4.56 4.56 0 0 1 2.696.88l16.276 11.887 18.972 13.859H32.055l18.972-13.86 16.277-11.886a4.56 4.56 0 0 1 2.696-.88"/>
            <path fill="#E1FFEC" d="M98 13.733H86v-12z"/>
            <path fill="#07AE44" fill-rule="nonzero" d="M84.973 1.733c0-.916 1.106-1.374 1.754-.727l12 12c.647.648.189 1.754-.727 1.754H86c-.567 0-1.027-.46-1.027-1.027v-12zm2.055 10.972h8.492l-8.492-8.492v8.492zM51.054 25.772a5.026 5.026 0 0 0 5.017 5.025 5.026 5.026 0 0 0 .218-10.046l-.218-.005a2.971 2.971 0 0 1 0-5.94 2.97 2.97 0 0 1 2.962 2.97 1.027 1.027 0 1 0 2.055 0 5.026 5.026 0 0 0-5.017-5.026 5.026 5.026 0 0 0-.217 10.047l.217.004a2.97 2.97 0 0 1 0 5.941 2.971 2.971 0 0 1-2.962-2.97 1.027 1.027 0 1 0-2.055 0z"/>
            <path fill="#07AE44" fill-rule="nonzero" d="M55.044 11.511v2.267a1.027 1.027 0 1 0 2.055 0v-2.267a1.027 1.027 0 1 0-2.055 0z"/>
            <path stroke="#07AE44" stroke-linecap="round" stroke-linejoin="round" stroke-width="2.055" d="M56.072 29.77v2.266"/>
            <path fill="#1BD75F" fill-rule="nonzero" d="M66.591 18.957h5.157a1.027 1.027 0 1 0 0-2.055h-5.157a1.027 1.027 0 1 0 0 2.055zM74.647 18.925H87.74a1.027 1.027 0 1 0 0-2.055H74.647a1.027 1.027 0 1 0 0 2.055zM83.048 23.814h4.691a1.027 1.027 0 1 0 0-2.055h-4.69a1.027 1.027 0 1 0 0 2.055zM66.591 23.813h13.823a1.027 1.027 0 1 0 0-2.055H66.591a1.027 1.027 0 1 0 0 2.055zM72.712 26.649h-5.94a1.027 1.027 0 1 0 0 2.055h5.94a1.027 1.027 0 1 0 0-2.055zM87.918 26.65H75.345a1.027 1.027 0 1 0 0 2.056h12.573a1.027 1.027 0 1 0 0-2.055zM68.338 31.475h-1.567a1.027 1.027 0 1 0 0 2.055h1.567a1.027 1.027 0 1 0 0-2.055zM87.918 31.477H70.971a1.027 1.027 0 1 0 0 2.055h16.947a1.027 1.027 0 1 0 0-2.055z"/>
        </g>
    </g>
</svg>
