<svg xmlns="http://www.w3.org/2000/svg" width="24" height="24" viewBox="0 0 24 24">
    <g fill="none" fill-rule="evenodd">
        <circle cx="12" cy="12" r="12"/>
        <g fill="#07AE44" fill-rule="nonzero" transform="translate(7 2.5)">
            <path d="M8.37-.5c1.02 0 1.853.833 1.853 1.854v15.325a1.824 1.824 0 0 1-1.83 1.869H1.533A1.858 1.858 0 0 1-.32 16.694V1.354C-.32.333.513-.5 1.534-.5H8.37zm0 1H1.534a.858.858 0 0 0-.854.854v15.34c0 .469.386.854.854.854h6.858a.828.828 0 0 0 .831-.854V1.354A.858.858 0 0 0 8.37.5z"/>
            <path d="M.451 3.094h9.25a.5.5 0 0 0 0-1H.45a.5.5 0 0 0 0 1zM.451 16.18h9.25a.5.5 0 1 0 0-1H.45a.5.5 0 1 0 0 1z"/>
            <circle cx="5.031" cy="16.762" r="1"/>
            <path d="M5.798 1.466H4.106a.299.299 0 0 1-.293-.293c0-.158.135-.293.293-.293h1.692c.158 0 .293.135.293.293.023.158-.113.293-.293.293z"/>
        </g>
    </g>
</svg>
