<svg xmlns="http://www.w3.org/2000/svg" xmlns:xlink="http://www.w3.org/1999/xlink" width="140" height="88" viewBox="0 0 140 88">
    <defs>
        <path id="a" d="M0 70h80V.219H0z"/>
        <path id="c" d="M2.686.747A1.936 1.936 0 0 0 .75 2.684v28.739c0 1.07.867 1.937 1.936 1.937h27.136c1.07 0 1.937-.867 1.937-1.937V2.684c0-1.07-.867-1.937-1.937-1.937"/>
        <path id="e" d="M.114.219h15.86v22.838H.114z"/>
    </defs>
    <g fill="none" fill-rule="evenodd">
        <path fill="#E1FFEC" d="M134.132 12.638c3.24 0 5.868 2.64 5.868 5.898 0 3.257-2.627 5.898-5.868 5.898h-33.533c3.24 0 5.868 2.64 5.868 5.898 0 3.257-2.627 5.898-5.868 5.898h18.443c3.24 0 5.868 2.64 5.868 5.898 0 3.257-2.627 5.898-5.868 5.898h-8.53c-4.086 0-7.398 2.64-7.398 5.897 0 2.172 1.676 4.138 5.03 5.898 3.24 0 5.868 2.64 5.868 5.898 0 3.257-2.627 5.898-5.868 5.898H38.563c-3.241 0-5.868-2.64-5.868-5.898 0-3.257 2.627-5.898 5.868-5.898H5.868c-3.24 0-5.868-2.64-5.868-5.898 0-3.257 2.627-5.897 5.868-5.897h33.533c3.241 0 5.868-2.641 5.868-5.898 0-3.258-2.627-5.898-5.868-5.898H18.443c-3.24 0-5.868-2.64-5.868-5.898 0-3.257 2.627-5.898 5.868-5.898h33.533c-3.24 0-5.868-2.64-5.868-5.898 0-3.257 2.627-5.898 5.868-5.898h82.156zm0 23.592c3.24 0 5.868 2.64 5.868 5.898 0 3.257-2.627 5.898-5.868 5.898-3.241 0-5.869-2.641-5.869-5.898 0-3.258 2.628-5.898 5.869-5.898z"/>
        <path fill="#1BD75F" fill-rule="nonzero" d="M110.659 40.928h6.854a1.013 1.013 0 0 1 .11 2.019l-.11.006h-6.854a1.012 1.012 0 0 1-.11-2.02l.11-.005h6.854-6.854zm-2.243-6.553h14.398a1.012 1.012 0 0 1 .11 2.019l-.11.006h-14.398a1.012 1.012 0 0 1-.11-2.02l.11-.005h14.398-14.398zm18.405 0h1.862a1.013 1.013 0 0 1 .11 2.019l-.11.006h-1.862a1.013 1.013 0 0 1-.11-2.02l.11-.005h1.862-1.862zM24.311 59.464h6.854a1.012 1.012 0 0 1 .11 2.019l-.11.006h-6.854a1.013 1.013 0 0 1-.11-2.02l.11-.005h6.854-6.854zm-11.464-7.396h14.399a1.013 1.013 0 0 1 .11 2.02l-.11.005h-14.4a1.013 1.013 0 0 1-.11-2.019l.11-.006h14.4-14.4zm-8.422 0h3.54a1.013 1.013 0 0 1 .11 2.02l-.11.005h-3.54a1.013 1.013 0 0 1-.11-2.019l.11-.006h3.54-3.54z"/>
        <g>
            <g transform="translate(30 .781)">
                <path fill="#FFF" d="M76.436 15.993H3.564a1.841 1.841 0 0 0-1.842 1.842v48.437c0 1.018.824 1.842 1.842 1.842h72.872a1.841 1.841 0 0 0 1.842-1.842V17.835a1.841 1.841 0 0 0-1.842-1.842"/>
                <mask id="b" fill="#fff">
                    <use xlink:href="#a"/>
                </mask>
                <path fill="#E1FFEC" d="M1.722 68.114h39.386V15.993H1.722z" mask="url(#b)"/>
                <path fill="#FFF" d="M8.904 56.923h27.511V27.636H8.904z" mask="url(#b)"/>
                <path fill="#07AE44" d="M78 14.598H2a2 2 0 0 0-2 2v51.401a2 2 0 0 0 2 2h76a2 2 0 0 0 2-2V16.598a2 2 0 0 0-2-2zM2.055 67.945h75.89V16.654H2.055v51.291z" mask="url(#b)"/>
                <path fill="#1BD75F" fill-rule="nonzero" d="M70.813 28.112a1.027 1.027 0 0 1 .112 2.049l-.112.006H44.065a1.027 1.027 0 0 1-.112-2.049l.112-.006h26.748zM70.813 36.93a1.027 1.027 0 0 1 .112 2.048l-.112.006H44.065a1.027 1.027 0 0 1-.112-2.049l.112-.006h26.748zM49.667 45.702a1.027 1.027 0 0 1 .112 2.049l-.112.006h-5.602a1.027 1.027 0 0 1-.112-2.05l.112-.005h5.602zM64.204 45.702a1.027 1.027 0 0 1 .112 2.049l-.112.006h-9.566a1.027 1.027 0 0 1-.112-2.05l.112-.005h9.566zM60.24 54.473a1.027 1.027 0 0 1 .112 2.05l-.112.005H44.065a1.027 1.027 0 0 1-.112-2.049l.112-.006H60.24z" mask="url(#b)"/>
                <path fill="#07AE44" d="M23.254 32.042a6.947 6.947 0 1 0 .001 13.895 6.947 6.947 0 0 0 0-13.895m0 2.055a4.899 4.899 0 0 1 4.892 4.892 4.899 4.899 0 0 1-4.893 4.893 4.898 4.898 0 0 1-4.893-4.893 4.898 4.898 0 0 1 4.893-4.892" mask="url(#b)"/>
            </g>
            <g transform="translate(37 25.781)">
                <mask id="d" fill="#fff">
                    <use xlink:href="#c"/>
                </mask>
                <path fill="#07AE44" d="M16.254 22.456c-6.42 0-11.625 4.043-11.625 9.029 0 4.987 5.204 9.03 11.625 9.03 6.42 0 11.625-4.043 11.625-9.03 0-4.986-5.205-9.03-11.625-9.03m0 2.056c5.276 0 9.57 3.129 9.57 6.974 0 3.846-4.294 6.975-9.57 6.975-5.277 0-9.57-3.13-9.57-6.975 0-3.845 4.293-6.974 9.57-6.974" mask="url(#d)"/>
            </g>
            <path fill="#07AE44" d="M66.76 26.528H39.75a2 2 0 0 0-2 2V57.14a2 2 0 0 0 2 2h27.01a2 2 0 0 0 2-2V28.528a2 2 0 0 0-2-2zM39.803 57.087h26.9V28.583h-26.9v28.504z"/>
            <path fill="#E1FFEC" d="M63.142 22.81V8.93a6.91 6.91 0 0 1 6.902-6.903c3.806 0 6.903 3.096 6.903 6.902V22.81H63.142z"/>
            <g transform="translate(62 .781)">
                <mask id="f" fill="#fff">
                    <use xlink:href="#e"/>
                </mask>
                <path fill="#07AE44" d="M8.044.219a7.93 7.93 0 0 0-7.93 7.93v14.908h15.86V8.149a7.93 7.93 0 0 0-7.93-7.93m0 2.056a5.88 5.88 0 0 1 5.875 5.874V21H2.17V8.149a5.88 5.88 0 0 1 5.874-5.874" mask="url(#f)"/>
            </g>
            <path fill="#1BD75F" d="M70.044 5.447a3.798 3.798 0 1 0 .001 7.597 3.798 3.798 0 0 0 0-7.597m0 2.056c.961 0 1.743.782 1.743 1.743 0 .962-.782 1.744-1.744 1.744a1.745 1.745 0 0 1-1.743-1.744c0-.961.782-1.743 1.743-1.743"/>
        </g>
    </g>
</svg>
