<svg xmlns="http://www.w3.org/2000/svg" width="56" height="56" viewBox="0 0 56 56">
    <g fill="none" fill-rule="evenodd">
        <circle cx="28" cy="28" r="28" fill="#1BD75F"/>
        <rect width="13.418" height="23.258" x="20.834" y="10.5" fill="#FFF" fill-rule="nonzero" rx="6.709"/>
        <path fill="#FFF" fill-rule="nonzero" d="M39.041 26.732a1.118 1.118 0 1 0-2.236 0c0 5.107-4.155 9.262-9.262 9.262-5.108 0-9.263-4.155-9.263-9.262a1.118 1.118 0 1 0-2.236 0c0 5.963 4.563 10.88 10.38 11.444v4.648h-4.473a1.118 1.118 0 0 0 0 2.236h11.183a1.118 1.118 0 0 0 0-2.236H28.66v-4.649c5.817-.564 10.38-5.48 10.38-11.443z"/>
    </g>
</svg>
