<svg xmlns="http://www.w3.org/2000/svg" xmlns:xlink="http://www.w3.org/1999/xlink" width="145" height="140" viewBox="0 0 145 140">
    <defs>
        <path id="a" d="M.849 23.59c0 12.588 10.201 22.79 22.787 22.79 12.584 0 22.786-10.202 22.786-22.79C46.422 11.005 36.22.803 23.636.803 11.057.816.864 11.012.849 23.59z"/>
        <path id="c" d="M18.19.747C13.682.747 7.891-.015 5 3c-2.736 2.853-2.695 9.366-2.695 13.632v52.896C2.305 73.645-.569 81.178 2 84c2.906 3.191 11.534 1.412 16.19 1.412h97.018c4.26 0 10.94 1.317 13.792-1.412 3.023-2.892 2.094-9.959 2.094-14.472V16.632c0-4.365.755-9.761-2.094-12.632-2.878-2.9-9.383-3.253-13.792-3.253H18.19z"/>
        <path id="e" d="M16.062.615C7.383.615.348 7.652.348 16.331v2.436c0 8.679 7.035 15.715 15.714 15.715h31.303V.615H16.062z"/>
    </defs>
    <g fill="none" fill-rule="evenodd">
        <g transform="translate(42 22)">
            <mask id="b" fill="#fff">
                <use xlink:href="#a"/>
            </mask>
            <path fill="#E1FFEC" d="M-4.151 51.38h55.573V-4.198H-4.151z" mask="url(#b)"/>
        </g>
        <path fill="#07AE44" d="M45.409 45.594c0 11.154 9.074 20.227 20.227 20.227s20.227-9.075 20.227-20.23c0-11.154-9.074-20.23-20.227-20.23-11.14.014-20.214 9.089-20.227 20.233M65.636 70.94c-13.976 0-25.346-11.371-25.346-25.35v-.002c.017-13.96 11.386-25.33 25.343-25.345 13.979 0 25.349 11.37 25.349 25.348S79.612 70.94 65.636 70.94"/>
        <path fill="#1BD75F" d="M65.636 58.545c-3.98 0-7.215-3.242-7.215-7.227a1.5 1.5 0 0 1 3 0 4.226 4.226 0 0 0 4.215 4.227 4.226 4.226 0 0 0 4.215-4.227c0-2.33-1.891-4.227-4.215-4.227-3.98 0-7.215-3.242-7.215-7.227 0-3.985 3.236-7.227 7.215-7.227 3.979 0 7.215 3.242 7.215 7.227a1.5 1.5 0 0 1-3 0 4.226 4.226 0 0 0-4.215-4.227 4.226 4.226 0 0 0-4.215 4.227 4.226 4.226 0 0 0 4.215 4.227c3.979 0 7.215 3.243 7.215 7.227 0 3.985-3.236 7.227-7.215 7.227"/>
        <path fill="#1BD75F" d="M65.636 35.636a1.5 1.5 0 0 1-1.5-1.5v-3.245a1.5 1.5 0 1 1 3 0v3.245a1.5 1.5 0 0 1-1.5 1.5M65.636 61.791a1.5 1.5 0 0 1-1.5-1.5v-3.245a1.5 1.5 0 1 1 3 0v3.245a1.5 1.5 0 0 1-1.5 1.5"/>
        <path fill="#07AE44" d="M65.636 19.16a2.56 2.56 0 0 1-2.56-2.56V3.32a2.56 2.56 0 1 1 5.12 0V16.6a2.56 2.56 0 0 1-2.56 2.56"/>
        <path fill="#1BD75F" d="M56.01 19.16a2.56 2.56 0 0 1-2.56-2.56V9.43a2.56 2.56 0 1 1 5.12 0v7.17a2.56 2.56 0 0 1-2.56 2.56M75.274 19.16a2.56 2.56 0 0 1-2.56-2.56V9.43a2.56 2.56 0 1 1 5.12 0v7.17a2.56 2.56 0 0 1-2.56 2.56"/>
        <g transform="translate(1 50)">
            <mask id="d" fill="#fff">
                <use xlink:href="#c"/>
            </mask>
            <path fill="#FFF" d="M-2.695 90.413h138.788V-4.253H-2.695z" mask="url(#d)"/>
        </g>
        <path fill="#1BD75F" d="M119.969 136.119h5.119V50.746h-5.119z"/>
        <g>
            <path stroke="#979797" d="M8.305 50.747h118.788a5 5 0 0 1 5 5v76.072a5 5 0 0 1-5 5H8.305a5 5 0 0 1-5-5V55.747a5 5 0 0 1 5-5z"/>
            <path fill="#07AE44" d="M8.305 53.306a2.443 2.443 0 0 0-2.44 2.44v76.072a2.443 2.443 0 0 0 2.44 2.441h118.788a2.444 2.444 0 0 0 2.441-2.44V55.745a2.444 2.444 0 0 0-2.44-2.44H8.304zm118.788 86.072H8.305c-4.168 0-7.56-3.392-7.56-7.56V55.746c0-4.168 3.392-7.559 7.56-7.559h118.788c4.17 0 7.56 3.391 7.56 7.56v76.071c0 4.168-3.39 7.56-7.56 7.56z"/>
        </g>
        <g transform="translate(95 78)">
            <mask id="f" fill="#fff">
                <use xlink:href="#e"/>
            </mask>
            <path fill="#E1FFEC" d="M-4.653 39.482h57.019V-4.385H-4.653z" mask="url(#f)"/>
        </g>
        <g fill="#07AE44">
            <path d="M111.061 81.175c-7.253 0-13.155 5.9-13.155 13.156v2.437c0 7.254 5.902 13.155 13.155 13.155h28.745V81.175h-28.745zm31.304 33.867h-31.304c-10.076 0-18.274-8.198-18.274-18.274V94.33c0-10.077 8.198-18.275 18.274-18.275h31.304a2.56 2.56 0 0 1 2.56 2.559v33.868a2.56 2.56 0 0 1-2.56 2.559z"/>
            <path d="M113.982 99.872h-4.025a2.56 2.56 0 0 1-2.559-2.56V93.08a2.56 2.56 0 0 1 2.56-2.56h4.024a2.56 2.56 0 0 1 2.56 2.56v4.233a2.56 2.56 0 0 1-2.56 2.56"/>
        </g>
    </g>
</svg>
