<svg xmlns="http://www.w3.org/2000/svg" width="140" height="88" viewBox="0 0 140 88">
    <g fill="none" fill-rule="evenodd">
        <path fill="#E1FFEC" d="M134.132 12.638c3.24 0 5.868 2.64 5.868 5.898 0 3.257-2.627 5.898-5.868 5.898h-33.533c3.24 0 5.868 2.64 5.868 5.898 0 3.257-2.627 5.898-5.868 5.898h18.443c3.24 0 5.868 2.64 5.868 5.898 0 3.257-2.627 5.898-5.868 5.898h-8.53c-4.086 0-7.398 2.64-7.398 5.897 0 2.172 1.676 4.138 5.03 5.898 3.24 0 5.868 2.64 5.868 5.898 0 3.257-2.627 5.898-5.868 5.898H38.563c-3.241 0-5.868-2.64-5.868-5.898 0-3.257 2.627-5.898 5.868-5.898H5.868c-3.24 0-5.868-2.64-5.868-5.898 0-3.257 2.627-5.897 5.868-5.897h33.533c3.241 0 5.868-2.641 5.868-5.898 0-3.258-2.627-5.898-5.868-5.898H18.443c-3.24 0-5.868-2.64-5.868-5.898 0-3.257 2.627-5.898 5.868-5.898h33.533c-3.24 0-5.868-2.64-5.868-5.898 0-3.257 2.627-5.898 5.868-5.898h82.156zm0 23.592c3.24 0 5.868 2.64 5.868 5.898 0 3.257-2.627 5.898-5.868 5.898-3.241 0-5.869-2.641-5.869-5.898 0-3.258 2.628-5.898 5.869-5.898z"/>
        <path stroke="#1BD75F" stroke-linecap="round" stroke-linejoin="round" stroke-width="2.025" d="M122.814 35.387h-14.398m20.267 0h-1.862m-9.308 6.553h-6.854M27.246 53.08h-14.4m-4.882 0H4.425m26.74 7.396h-6.854"/>
        <g>
            <path fill="#07AE44" d="M49.26 15.28V7.03c0-.48-.09-.94-.26-1.36a3.723 3.723 0 0 0-3.47-2.36c-2.05 0-3.73 1.67-3.73 3.72v8.25h7.46zm42.78 45.89V7.04c0-2.06-1.68-3.73-3.73-3.73H49.95c.11.12.2.24.28.37.36.49.64 1.04.82 1.63.17.54.26 1.12.26 1.72v61.31c0 .48.09.95.26 1.37a3.74 3.74 0 0 0 3.47 2.36v-.01h.1a3.72 3.72 0 0 0 3.63-3.72v-7.16h29.54v-.01h3.73zm5.78 7.17v-5.15h-3.73v.04H82.53v-.04H60.82v5.15c0 1.25-.4 2.42-1.08 3.36-.08.13-.18.24-.28.36h34.63v.01a3.73 3.73 0 0 0 3.73-3.73zm2.06-7.16v2.01h-.01v5.15c0 1.25-.4 2.42-1.08 3.36-.08.13-.18.25-.29.37a5.72 5.72 0 0 1-4.41 2.05H55.04c-.45 0-.89-.05-1.32-.16-.14-.03-.28-.07-.41-.11a5.319 5.319 0 0 1-1.74-.9c-.35-.25-.67-.55-.94-.88a5.56 5.56 0 0 1-1.11-2.01 5.727 5.727 0 0 1-.26-1.72v-51h-9.51V7.03c0-2.18 1.21-4.08 3-5.06a5.674 5.674 0 0 1 2.78-.72h42.78c.22 0 .44.01.65.04a4.324 4.324 0 0 1 .83.16c.14.03.27.07.4.12l.01.01c.16.05.33.11.48.19.06.01.11.04.16.07.16.08.31.17.46.26a5.75 5.75 0 0 1 2.79 4.94v54.14H99.88z"/>
            <path fill="#E1FFEC" d="M97.82 63.19v5.15a3.73 3.73 0 0 1-3.73 3.73v-.01H59.46c.1-.12.2-.23.28-.36.68-.94 1.08-2.11 1.08-3.36v-5.15h21.71v.04h11.56v-.04h3.73z"/>
            <path fill="#FFF" d="M92.04 7.04v54.13h-3.73v.01H58.77v7.16c0 2.03-1.62 3.67-3.63 3.72h-.1v.01c-1.57 0-2.92-.98-3.47-2.36-.17-.42-.26-.89-.26-1.37V7.03c0-.6-.09-1.18-.26-1.72a5.42 5.42 0 0 0-.82-1.63 2.4 2.4 0 0 0-.28-.37h38.36a3.735 3.735 0 0 1 3.73 3.73"/>
            <path fill="#1BD75F" d="M49.26 7.03v8.25H41.8V7.03c0-2.05 1.68-3.72 3.73-3.72 1.58 0 2.93.98 3.47 2.36.17.42.26.88.26 1.36"/>
            <path fill="#1BD75F" fill-rule="nonzero" d="M78.979 29.373a1.027 1.027 0 0 1 .112 2.05l-.112.006H64.372a1.027 1.027 0 0 1-.112-2.05l.112-.006h14.607zM62.88 35.448a1.027 1.027 0 0 1 .112 2.049l-.112.006h-8.252a1.027 1.027 0 0 1-.112-2.05l.112-.005h8.252zM88.472 35.416a1.027 1.027 0 0 1 .112 2.05l-.112.005H67.518a1.027 1.027 0 0 1-.112-2.048l.112-.007h20.954zM88.473 40.306a1.027 1.027 0 0 1 .112 2.05l-.112.005h-7.51a1.027 1.027 0 0 1-.111-2.049l.112-.006h7.509zM76.75 40.304a1.027 1.027 0 0 1 .112 2.05l-.112.005H54.628a1.027 1.027 0 0 1-.112-2.049l.112-.006H76.75zM64.423 45.196a1.027 1.027 0 0 1 .112 2.049l-.112.006h-9.51a1.027 1.027 0 0 1-.111-2.05l.112-.005h9.509zM88.759 45.197a1.027 1.027 0 0 1 .112 2.049l-.112.006H68.637a1.027 1.027 0 0 1-.112-2.05l.112-.005h20.122z"/>
            <g>
                <path fill="#07AE44" fill-rule="nonzero" d="M68.169 56.485c.9.958 2.377.624 4.822-.496l.631-.081.638-.075c1.807-.201 3.583-.31 4.401-.224 1.33.14 1.586-1.832.266-2.038l-1.081-.173.34-.198a1.028 1.028 0 0 0-1.037-1.774l-1.096.635-.834.472c-.267.15-.525.291-.775.426-3.456-.326-6.742-.229-10.077.49a1.028 1.028 0 0 0 .433 2.01c.941-.204 1.88-.353 2.824-.455l.708-.067a1.028 1.028 0 0 0-.163 1.548z"/>
                <path fill="#00742A" d="M71.676 25.427c-5.042 0-9.144-4.103-9.144-9.145s4.102-9.143 9.144-9.143 9.145 4.101 9.145 9.143c0 5.042-4.103 9.145-9.145 9.145"/>
                <path fill="#00742A" d="M71.677 6.112c-5.618 0-10.172 4.554-10.172 10.171 0 5.618 4.554 10.171 10.172 10.171 5.617 0 10.17-4.553 10.17-10.171 0-5.617-4.553-10.171-10.17-10.171m0 2.055c4.475 0 8.115 3.641 8.115 8.116s-3.64 8.116-8.115 8.116c-4.476 0-8.116-3.641-8.116-8.116s3.64-8.116 8.116-8.116"/>
                <path fill="#FFF" fill-rule="nonzero" d="M71.045 17.97l-2.58-2.214a1.027 1.027 0 1 0-1.337 1.56l3.358 2.88c.43.37 1.078.32 1.447-.109l4.722-5.484a1.027 1.027 0 1 0-1.557-1.34l-4.053 4.706z"/>
            </g>
        </g>
    </g>
</svg>
