<svg xmlns="http://www.w3.org/2000/svg" xmlns:xlink="http://www.w3.org/1999/xlink" width="124" height="78" viewBox="0 0 124 78">
    <defs>
        <path id="prefix__a" d="M25.459.289C17.651 3.784 9.836 7.263 2.085 10.702c-.807.28-1.307 1.079-1.213 1.922.02 2.871.03 5.743.03 8.614v6.941c-.033 8.044 2.703 15.94 7.69 22.218 4.155 5.507 9.84 9.469 16.427 11.45.467.15.947.225 1.427.224.475 0 .95-.073 1.407-.218 6.827-2.06 12.577-6.194 17.085-12.285 3.411-4.576 5.69-9.976 6.59-15.618.276-1.777.42-3.586.43-5.377.03-5.349.03-10.692.03-16.039.067-.8-.434-1.55-1.195-1.792C43.071 7.327 35.181 3.81 27.383.309c-.313-.16-.657-.238-.994-.238-.327 0-.648.073-.93.218"/>
        <path id="prefix__c" d="M25.459.289C17.651 3.784 9.836 7.263 2.085 10.702c-.807.28-1.307 1.079-1.213 1.922.02 2.871.03 5.743.03 8.614v6.941c-.033 8.044 2.703 15.94 7.69 22.218 4.155 5.507 9.84 9.469 16.427 11.45.467.15.947.225 1.427.224.475 0 .95-.073 1.407-.218 6.827-2.06 12.577-6.194 17.085-12.285 3.411-4.576 5.69-9.976 6.59-15.618.276-1.777.42-3.586.43-5.377.03-5.349.03-10.692.03-16.039.067-.8-.434-1.55-1.195-1.792C43.071 7.327 35.181 3.81 27.383.309c-.313-.16-.657-.238-.994-.238-.327 0-.648.073-.93.218z"/>
        <path id="prefix__e" d="M25.459.289C17.651 3.784 9.836 7.263 2.085 10.702c-.807.28-1.307 1.079-1.213 1.922.02 2.871.03 5.743.03 8.614v6.941c-.033 8.044 2.703 15.94 7.69 22.218 4.155 5.507 9.84 9.469 16.427 11.45.467.15.947.225 1.427.224.475 0 .95-.073 1.407-.218 6.827-2.06 12.577-6.194 17.085-12.285 3.411-4.576 5.69-9.976 6.59-15.618.276-1.777.42-3.586.43-5.377.03-5.349.03-10.692.03-16.039.067-.8-.434-1.55-1.195-1.792C43.071 7.327 35.181 3.81 27.383.309c-.313-.16-.657-.238-.994-.238-.327 0-.648.073-.93.218z"/>
        <path id="prefix__g" d="M25.459.289C17.651 3.784 9.836 7.263 2.085 10.702c-.807.28-1.307 1.079-1.213 1.922.02 2.871.03 5.743.03 8.614v6.941c-.033 8.044 2.703 15.94 7.69 22.218 4.155 5.507 9.84 9.469 16.427 11.45.467.15.947.225 1.427.224.475 0 .95-.073 1.407-.218 6.827-2.06 12.577-6.194 17.085-12.285 3.411-4.576 5.69-9.976 6.59-15.618.276-1.777.42-3.586.43-5.377.03-5.349.03-10.692.03-16.039.067-.8-.434-1.55-1.195-1.792C43.071 7.327 35.181 3.81 27.383.309c-.313-.16-.657-.238-.994-.238-.327 0-.648.073-.93.218z"/>
    </defs>
    <g fill="none" fill-rule="evenodd">
        <g>
            <path fill="#E1FFEC" d="M118.802.566c2.871 0 5.198 2.34 5.198 5.227 0 2.888-2.327 5.228-5.198 5.228h-29.7c2.87 0 5.197 2.34 5.197 5.228 0 2.887-2.327 5.227-5.197 5.227h16.335c2.87 0 5.198 2.34 5.198 5.228 0 2.887-2.327 5.228-5.198 5.228h-7.554c-3.62 0-6.554 2.34-6.554 5.227 0 1.925 1.485 3.668 4.455 5.228 2.871 0 5.198 2.34 5.198 5.228 0 2.887-2.327 5.227-5.198 5.227H34.156c-2.87 0-5.198-2.34-5.198-5.227 0-2.887 2.327-5.228 5.198-5.228H5.198C2.327 42.387 0 40.047 0 37.159c0-2.887 2.327-5.227 5.198-5.227h29.7c2.87 0 5.198-2.34 5.198-5.228 0-2.887-2.327-5.228-5.198-5.228H16.335c-2.87 0-5.197-2.34-5.197-5.227 0-2.887 2.327-5.228 5.197-5.228h29.7c-2.87 0-5.197-2.34-5.197-5.228 0-2.887 2.327-5.227 5.198-5.227h72.766zm0 20.91c2.871 0 5.198 2.34 5.198 5.228 0 2.887-2.327 5.228-5.198 5.228-2.87 0-5.197-2.34-5.197-5.228 0-2.887 2.327-5.228 5.197-5.228z" transform="translate(0 10.636)"/>
            <path stroke="#1BD75F" stroke-linecap="round" stroke-linejoin="round" stroke-width="2.025" d="M108.778 20.73H96.025m17.951 0h-1.65m-8.243 5.808h-6.071M24.132 36.413H11.378m-4.324 0H3.92m23.684 6.555h-6.071" transform="translate(0 10.636)"/>
        </g>
        <g>
            <g transform="translate(35.871) translate(0 .789)">
                <mask id="prefix__b" fill="#fff">
                    <use xlink:href="#prefix__a"/>
                </mask>
                <path fill="#1BD75F" d="M50.478 11.598C42.639 8.131 34.804 4.638 26.97 1.121c-.358-.182-.782-.182-1.14 0-7.81 3.494-15.626 6.974-23.447 10.44-.416.144-.669.565-.6 1 .02 2.893.03 5.785.03 8.677v6.945c-.033 7.868 2.615 15.51 7.505 21.664 4.011 5.318 9.607 9.217 15.977 11.134.746.237 1.548.237 2.294 0 6.905-2.083 12.357-6.198 16.62-11.957 3.336-4.476 5.54-9.697 6.419-15.214.27-1.734.411-3.487.42-5.242.03-5.361.03-10.718.03-16.08.05-.405-.207-.785-.6-.89" mask="url(#prefix__b)"/>
                <mask id="prefix__d" fill="#fff">
                    <use xlink:href="#prefix__c"/>
                </mask>
                <path fill="#E1FFEC" d="M51.078 12.489L40.427 7.139 26.198 1.121 26.198 61.14 35.491 57.335 44.209 49.024 50.627 33.81z" mask="url(#prefix__d)"/>
                <g>
                    <mask id="prefix__f" fill="#fff">
                        <use xlink:href="#prefix__e"/>
                    </mask>
                    <path stroke="#FFF" stroke-linejoin="round" stroke-width="8" d="M50.478 11.598C42.639 8.131 34.804 4.638 26.97 1.121c-.358-.182-.782-.182-1.14 0-7.81 3.494-15.626 6.974-23.447 10.44-.416.144-.669.565-.6 1 .02 2.893.03 5.785.03 8.677v6.945c-.033 7.868 2.615 15.51 7.505 21.664 4.011 5.318 9.607 9.217 15.977 11.134.746.237 1.548.237 2.294 0 6.905-2.083 12.357-6.198 16.62-11.957 3.336-4.476 5.54-9.697 6.419-15.214.27-1.734.411-3.487.42-5.242.03-5.361.03-10.718.03-16.08.05-.405-.207-.785-.6-.89z" mask="url(#prefix__f)"/>
                </g>
                <g>
                    <mask id="prefix__h" fill="#fff">
                        <use xlink:href="#prefix__g"/>
                    </mask>
                    <path stroke="#07AE44" stroke-linejoin="round" stroke-width="2.055" d="M50.478 11.598C42.639 8.131 34.804 4.638 26.97 1.121c-.358-.182-.782-.182-1.14 0-7.81 3.494-15.626 6.974-23.447 10.44-.416.144-.669.565-.6 1 .02 2.893.03 5.785.03 8.677v6.945c-.033 7.868 2.615 15.51 7.505 21.664 4.011 5.318 9.607 9.217 15.977 11.134.746.237 1.548.237 2.294 0 6.905-2.083 12.357-6.198 16.62-11.957 3.336-4.476 5.54-9.697 6.419-15.214.27-1.734.411-3.487.42-5.242.03-5.361.03-10.718.03-16.08.05-.405-.207-.785-.6-.89z" mask="url(#prefix__h)"/>
                </g>
            </g>
            <g>
                <path fill="#00742A" d="M14.028 27.092c-6.977 0-12.653-5.77-12.653-12.862 0-7.092 5.676-12.861 12.653-12.861 6.976 0 12.651 5.77 12.651 12.861 0 7.092-5.675 12.862-12.651 12.862" transform="translate(35.871) translate(12.4 17.63)"/>
                <path fill="#FFF" d="M14.028.459C6.55.459.465 6.637.465 14.23c0 7.594 6.085 13.772 13.563 13.772 7.478 0 13.563-6.178 13.563-13.772C27.59 6.637 21.506.46 14.028.46m0 1.821c6.484 0 11.742 5.35 11.742 11.95s-5.258 11.952-11.742 11.952c-6.485 0-11.743-5.352-11.743-11.952S7.543 2.28 14.028 2.28" transform="translate(35.871) translate(12.4 17.63)"/>
                <path stroke="#FFF" stroke-linecap="round" stroke-linejoin="round" stroke-width="2.055" d="M9.549 14.528L13.426 17.912 18.877 11.469" transform="translate(35.871) translate(12.4 17.63)"/>
            </g>
        </g>
    </g>
</svg>
