<svg xmlns="http://www.w3.org/2000/svg" width="26" height="26" viewBox="0 0 26 26">
    <g fill="#1BD75F" fill-rule="nonzero">
        <path d="M13 .5C6.096.5.5 6.096.5 13S6.096 25.5 13 25.5 25.5 19.904 25.5 13 19.904.5 13 .5zm0 1c6.351 0 11.5 5.149 11.5 11.5S19.351 24.5 13 24.5 1.5 19.351 1.5 13 6.649 1.5 13 1.5z"/>
        <rect width="5.75" height="9.968" x="9.929" y="5.5" rx="2.875"/>
        <path d="M17.732 12.456a.48.48 0 1 0-.958 0c0 2.19-1.781 3.97-3.97 3.97a3.974 3.974 0 0 1-3.97-3.97.48.48 0 1 0-.958 0 4.935 4.935 0 0 0 4.449 4.905v1.992h-1.917a.48.48 0 0 0 0 .958H15.2a.48.48 0 0 0 0-.958h-1.917v-1.992a4.934 4.934 0 0 0 4.449-4.905z"/>
    </g>
</svg>
