<svg xmlns="http://www.w3.org/2000/svg" width="16" height="14" viewBox="0 0 16 14">
    <path fill="#07AE44" d="M6.972 2.368c.332-.017.712-.017 1.11-.017 3.463 0 5.585 1.07 6.343 3.203.06-.054.122-.132.182-.229.348-.57.53-1.247.53-1.924 0-.178.15-.32.298-.32.166 0 .298.142.298.32 0 .802-.232 1.604-.629 2.28-.15.238-.319.416-.498.52.089.42.134.877.134 1.369 0 2.012-.779 3.455-2.302 4.31v1.64c0 .266-.216.48-.464.48h-1.905a.472.472 0 01-.447-.41l-.132-.89c-.845.089-1.822.107-2.733-.018l-.116.908a.472.472 0 01-.447.41H4.273c-.249 0-.447-.214-.447-.48v-1.89a5.148 5.148 0 01-1.69-1.798L.315 9.226A.496.496 0 010 8.763v-2.53c0-.213.132-.391.315-.462l1.325-.446c.314-1.104.977-1.87 2.037-2.351C3.809 1.086 4.19.142 4.869.017c.696-.142 1.358.606 2.103 2.351zM5.035.978c-.083.054-.381.607-.464 2.37-.017.196-.133.374-.298.428-1.01.391-1.59 1.033-1.805 2.048a.486.486 0 01-.298.356l-1.26.41v1.817l1.69.57a.494.494 0 01.265.231c.364.713.911 1.3 1.656 1.728.15.09.232.25.232.428v1.674H5.83l.132-.98a.48.48 0 01.182-.32.472.472 0 01.348-.09c1.11.214 2.352.179 3.345.036.249-.035.464.143.514.41l.1.944h1.076v-1.46c0-.196.1-.357.265-.446 1.374-.677 2.037-1.852 2.037-3.58v-.123c-.008-1.156-.21-4.117-5.747-4.117-.513 0-.977.018-1.375.036a.42.42 0 01-.43-.285C5.614 1.406 5.15.997 5.035.979z"/>
</svg>
