<svg xmlns="http://www.w3.org/2000/svg" xmlns:xlink="http://www.w3.org/1999/xlink" width="62" height="51" viewBox="0 0 62 51">
    <defs>
        <path id="a" d="M17.973 15.186h-8.76L7.156 13.87v-1.87l6.535-7.603 4.282-2.813 3.456 2.032.43.78 3.351-2.812h2.034l8.076 7.552 5.53 6.051z"/>
    </defs>
    <g fill="none" fill-rule="evenodd">
        <path fill="#1BD75F" d="M47.354 31.805h-1.609a.784.784 0 0 0-.781.781v1.563c0 .437.352.78.781.78h1.61a.773.773 0 0 0 .78-.78v-1.563a.778.778 0 0 0-.78-.781"/>
        <g transform="translate(.995 .5)">
            <use fill="#D8D8D8" xlink:href="#a"/>
            <use fill="#E1FFEC" xlink:href="#a"/>
        </g>
        <path fill="#07AE44" d="M59.222 39.904h-13.07c-3.446 0-6.25-2.808-6.25-6.274 0-.361.03-.714.086-1.06a6.3 6.3 0 0 1 5.109-5.13 6.77 6.77 0 0 1 1.055-.085H59.222v12.55zm-7.806 8.494h3.189v-6.392h-3.19v6.392zM3.089 17.026h46.233V25.252h-3.17c-.727 0-1.438.094-2.11.276a8.39 8.39 0 0 0-5.968 5.992 8.525 8.525 0 0 0-.266 2.11c0 .36.023.713.07 1.058.516 4.125 4.04 7.318 8.274 7.318h3.17v6.392H3.089V17.026zm5.063-3.93L18.597 2.6l2.625 2.636-6.352 6.369a2.116 2.116 0 0 0 0 2.973l.344.344H9.972l-1.82-1.828zm16.03-7.859L26.8 2.601l12.274 12.322H18.175l-1.82-1.828 6.344-6.376 1.484-1.482zm30.423 20.015h-3.19V17.026h3.19v8.226zm4.617 0h-2.523v-8.226c0-1.161-.938-2.103-2.094-2.103h-12.57L28.284 1.12a2.078 2.078 0 0 0-2.961 0l-2.625 2.626L20.08 1.12a2.078 2.078 0 0 0-2.96 0L6.666 11.606a2.116 2.116 0 0 0 0 2.973l.344.344H3.089a2.099 2.099 0 0 0-2.094 2.103v31.372c0 1.161.938 2.102 2.094 2.102h51.516a2.098 2.098 0 0 0 2.094-2.102v-6.392h2.523a2.098 2.098 0 0 0 2.094-2.102V27.355c0-1.16-.938-2.103-2.094-2.103z"/>
    </g>
</svg>
