<svg xmlns="http://www.w3.org/2000/svg" width="52" height="41" viewBox="0 0 52 41">
    <path fill="#07AE44" fill-rule="nonzero" d="M51.089 13.873L38.214.997a1.36 1.36 0 0 0-2.321.962v5.947h-9.73a1.36 1.36 0 0 0 0 2.719h11.09c.75 0 1.359-.61 1.359-1.36V5.24l9.592 9.594-9.592 9.592V20.4c0-.75-.61-1.36-1.36-1.36H16.431v-5.948a1.36 1.36 0 0 0-2.321-.962L1.237 25.005a1.358 1.358 0 0 0 0 1.922L14.11 39.802a1.36 1.36 0 0 0 2.32-.962v-5.948h9.732a1.36 1.36 0 0 0 0-2.719H15.07c-.75 0-1.36.609-1.36 1.36v.02l.002 4.007-9.592-9.594 9.592-9.592-.001 3.996a1.36 1.36 0 0 0 1.36 1.39h20.822v5.947a1.359 1.359 0 0 0 2.321.962L51.09 15.795c.255-.255.397-.6.397-.962 0-.361-.142-.706-.397-.96z"/>
</svg>
