<svg xmlns="http://www.w3.org/2000/svg" xmlns:xlink="http://www.w3.org/1999/xlink" width="168" height="168" viewBox="0 0 168 168">
    <defs>
        <path id="a" d="M107.343 8.56c-.491.228-.947.51-1.375.83-.593-.156-4.83-1.13-4.83-1.13C65.038.48 40.793 15.268 40.73 15.304c-12.739 7.5-20.42 19.062-22.533 33.75-.218-.028-.447-.047-.674-.065a11.83 11.83 0 0 0-.857-4.738c-1.348-3.426-4.128-5.895-7.08-6.296-2.323-.32-4.536.693-6.068 2.753-2.223 2.987-1.859 5.356-1.167 6.814 1.175 2.47 4.193 4.21 9.205 5.303a9.228 9.228 0 0 1-.456.638c-2.962 3.773-6.443 4.612-8.712 4.693A2.468 2.468 0 0 0 0 60.633v.008a2.47 2.47 0 0 0 2.342 2.48c.165.009.336.009.52.009 2.87 0 7.471-1.075 11.89-6.707a13.862 13.862 0 0 0 1.702-2.806c.44.055.858.1 1.268.136a61.34 61.34 0 0 0-.128 3.919c0 9.877 2.316 18.688 6.89 26.187 4.209 6.915 10.232 12.573 17.92 16.828l3.172 16.765c.51 2.734 2.87 4.73 5.613 4.73h11.016c2.742 0 5.102-1.996 5.614-4.73l1.612-8.674c3.343.365 6.815.549 10.313.549 4.81 0 9.614-.339 14.297-1.014l1.695 9.139c.509 2.743 2.87 4.73 5.612 4.73h11.015c2.743 0 5.104-1.987 5.613-4.739l3.3-17.767c9.32-5.01 16.345-11.597 20.883-19.58.328-.575.829-.993 1.412-1.184l10.58-3.453c3.662-1.195 6.121-4.621 6.121-8.54V55.85c0-3.918-2.459-7.343-6.121-8.537l-6.561-2.141c-.849-.273-1.504-.956-1.776-1.83a43.353 43.353 0 0 0-6.207-12.485 46.394 46.394 0 0 0-4.146-4.984c.965-4.318 1.494-9.211 1.431-13.439-.1-6.05-1.285-9.594-3.636-10.843-.446-.238-1.217-.65-2.955-.65-3.163 0-9.528 1.364-22.958 7.62zm4.94 24.775c-4.775-3.554-6.362-9.941-4.593-18.478.173-.858.774-1.595 1.595-1.987 11.68-5.44 18.413-7.216 20.911-7.216.382 0 .664.046.847.118.756.811 1.74 5.45.828 13.33-.892 7.809-3.306 14.497-5.722 15.892-1.187.683-3.043 1.129-5.155 1.129-2.781 0-6.004-.773-8.712-2.788zM50.158 116.56l-3.261-17.24a3.74 3.74 0 0 0-1.887-2.596C30.13 88.642 22.26 75.14 22.26 57.672c0-8.828 1.904-16.637 5.64-23.199 3.499-6.13 8.592-11.197 15.16-15.061.128-.073 22.47-13.521 55.701-6.833a75.237 75.237 0 0 1 4.436.993c-.027.1-.055.2-.072.309-1.14 5.495-1.066 10.352.219 14.433 1.148 3.681 3.235 6.652 6.186 8.847 3.472 2.597 7.673 3.71 11.48 3.71 2.861 0 5.505-.63 7.436-1.75 2.196-1.267 4.029-3.928 5.485-7.919a36.875 36.875 0 0 1 1.913 2.452 38.536 38.536 0 0 1 5.522 11.116c.72 2.333 2.514 4.172 4.802 4.92l6.56 2.14c1.722.566 2.878 2.18 2.878 4.02v11.07c0 1.84-1.156 3.454-2.878 4.019l-10.579 3.443a7.253 7.253 0 0 0-4.026 3.335c-4.155 7.31-10.69 13.358-19.426 17.978a3.703 3.703 0 0 0-1.914 2.615l-3.39 18.26a1.05 1.05 0 0 1-1.03.865h-11.015c-.5 0-.929-.364-1.03-.866l-1.876-10.087c-.364-1.986-2.197-3.306-4.164-3.005a95.003 95.003 0 0 1-14.534 1.101c-3.644 0-7.235-.21-10.686-.61-1.916-.228-3.692 1.093-4.046 3.016l-1.777 9.585c-.101.502-.53.866-1.03.866H51.189c-.502 0-.939-.364-1.03-.874zM6.552 45.453c-.247-.51.327-1.392.683-1.885.573-.766 1.102-.92 1.502-.92.084 0 .164 0 .24.009 1.064.145 2.567 1.348 3.37 3.36.181.475.428 1.258.482 2.243-3.225-.684-5.74-1.668-6.277-2.807z"/>
        <path id="c" d="M21.106 8.912c-6.568 3.864-11.662 8.93-15.161 15.061C2.21 30.535.305 38.344.305 47.172c0 17.467 7.872 30.97 22.751 39.052a3.734 3.734 0 0 1 1.886 2.596l3.263 17.24c.09.51.529.875 1.029.875H40.25c.5 0 .929-.365 1.03-.866l1.776-9.585c.355-1.923 2.13-3.244 4.046-3.016 3.453.4 7.043.61 10.687.61 4.902 0 9.785-.365 14.532-1.101 1.968-.303 3.8 1.019 4.166 3.005l1.876 10.087c.1.501.53.866 1.03.866H90.41c.5 0 .938-.365 1.029-.866l3.39-18.26a3.707 3.707 0 0 1 1.913-2.615c8.74-4.619 15.271-10.668 19.426-17.977a7.254 7.254 0 0 1 4.025-3.335l10.58-3.443c1.723-.566 2.879-2.178 2.879-4.02V45.35c0-1.84-1.156-3.453-2.878-4.018l-6.56-2.141c-2.288-.748-4.083-2.587-4.802-4.92a38.56 38.56 0 0 0-5.522-11.116 37.195 37.195 0 0 0-1.913-2.452c-1.459 3.991-3.29 6.652-5.486 7.918-1.932 1.122-4.574 1.75-7.435 1.75-3.808 0-8.009-1.112-11.48-3.709-2.953-2.195-5.04-5.166-6.187-8.847-1.285-4.081-1.358-8.938-.218-14.433.018-.109.045-.208.071-.31a75.81 75.81 0 0 0-2.495-.591c-.629-.147-1.94-.401-1.94-.401C70.192.749 64.01.215 58.347.215c-22.785 0-37.139 8.638-37.241 8.697z"/>
        <path id="e" d="M2.376 8.097C1.555 8.49.954 9.227.78 10.084-.988 18.62.599 25.008 5.374 28.562c4.765 3.544 11.116 3.243 13.866 1.659 2.416-1.395 4.83-8.083 5.722-15.891.912-7.882-.071-12.52-.828-13.33-.183-.073-.465-.119-.848-.119-2.497 0-9.23 1.776-20.91 7.216z"/>
        <path id="g" d="M10.609 2.522c0 1.662-1.33 3.014-2.963 3.014-1.632 0-2.963-1.352-2.963-3.014C4.683 1.212 3.64.15 2.351.15 1.064.15.02 1.21.02 2.522c0 4.28 3.421 7.761 7.626 7.761s7.627-3.482 7.627-7.761c0-1.31-1.046-2.372-2.333-2.372-1.289 0-2.331 1.061-2.331 2.372z"/>
        <path id="i" d="M1.457 4.579a2.444 2.444 0 0 0-1.143 3.26 2.446 2.446 0 0 0 2.204 1.386c.355 0 .716-.079 1.058-.243.109-.052 11.057-5.209 26.707-2.872a2.436 2.436 0 0 0 2.777-2.056 2.444 2.444 0 0 0-2.055-2.777 60.295 60.295 0 0 0-8.907-.664C9.87.613 1.864 4.383 1.457 4.579z"/>
        <path id="k" d="M7.082.881L1.579 3.902a1.431 1.431 0 0 0-.566 1.945c.38.693 1.252.944 1.943.566l3.765-2.067.776 4.224c.126.69.73 1.172 1.407 1.172a1.434 1.434 0 0 0 1.41-1.69L9.18 1.878A1.43 1.43 0 0 0 8.385.843 1.434 1.434 0 0 0 7.082.88z"/>
        <path id="m" d="M.93 6.34h13.836V.871c-1.086.052-2.22.078-3.381.078C8.052.95 4.516.725.93.284v6.055z"/>
        <path id="o" d="M.518 1.485v8.13h16.568V2.116a.734.734 0 0 0-.736-.737c-.013 0-.03 0-.043.002-1.283.074-2.605.11-3.968.11-3.482 0-7.165-.247-10.985-.737a.739.739 0 0 0-.836.73zM3.253 3.73a87.63 87.63 0 0 0 9.086.497c.683 0 1.355-.009 2.014-.027V6.88h-11.1V3.73z"/>
        <path id="q" d="M.766 4.142v6.015h13.836V.33C10.372 2.174 5.724 3.454.767 4.142z"/>
        <path id="s" d="M15.865.603C11.609 2.563 6.71 4.03 1.005 4.768a.74.74 0 0 0-.65.731v7.933h16.567V1.272c0-.43-.348-.74-.739-.74a.756.756 0 0 0-.318.071zM3.089 7.23c3.912-.622 7.63-1.612 11.1-2.953V10.7H3.09v-3.47z"/>
        <path id="u" d="M.604 13.373v13.012h13.834V.895C9.997 6.245 5.351 10.436.604 13.373z"/>
        <path id="w" d="M15.759 1.135C13.379 4.162 7.935 10.769.546 15.254a.73.73 0 0 0-.354.627v14.733H16.76V1.416c0-.302-.276-.491-.558-.491a.552.552 0 0 0-.443.21zM2.925 16.991c3.791-2.44 7.508-5.646 11.1-9.58v20.47h-11.1v-10.89z"/>
    </defs>
    <g fill="none" fill-rule="evenodd">
        <g transform="translate(3.818 21.97)">
            <mask id="b" fill="#fff">
                <use xlink:href="#a"/>
            </mask>
            <path fill="#27A846" d="M-9.545 131.727h179.362V-8.607H-9.545z" mask="url(#b)"/>
        </g>
        <g transform="translate(25.773 32.47)">
            <mask id="d" fill="#fff">
                <use xlink:href="#c"/>
            </mask>
            <path fill="#FEFEFE" d="M-9.24 116.48h152.438V-9.333H-9.24z" mask="url(#d)"/>
        </g>
        <g transform="translate(110.727 26.743)">
            <mask id="f" fill="#fff">
                <use xlink:href="#e"/>
            </mask>
            <path fill="#E3F0E5" d="M-9.467 40.895h44.341v-49.56H-9.467z" mask="url(#f)"/>
        </g>
        <g transform="translate(123.136 68.743)">
            <mask id="h" fill="#fff">
                <use xlink:href="#g"/>
            </mask>
            <path fill="#54B15A" d="M-9.525 18.874h34.343V-10.35H-9.525z" mask="url(#h)"/>
        </g>
        <g transform="translate(59.182 38.198)">
            <mask id="j" fill="#fff">
                <use xlink:href="#i"/>
            </mask>
            <path fill="#54B15A" d="M-4.7 13.996h42.56V-4.16H-4.7z" mask="url(#j)"/>
        </g>
        <g transform="translate(102.136 63.97)">
            <mask id="l" fill="#fff">
                <use xlink:href="#k"/>
            </mask>
            <path fill="#27A846" d="M-3.938 14.516H15.11V-4.067H-3.937z" mask="url(#l)"/>
        </g>
        <path fill="#27A846" d="M60.284 94.656a96.97 96.97 0 0 1-4.05-.086 1.43 1.43 0 0 1-1.37-1.49 1.42 1.42 0 0 1 1.49-1.37c24.782 1.028 42.354-7.599 52.285-25.643a1.431 1.431 0 1 1 2.508 1.38c-9.942 18.067-27.042 27.209-50.863 27.209"/>
        <g transform="translate(55.364 98.334)">
            <mask id="n" fill="#fff">
                <use xlink:href="#m"/>
            </mask>
            <path fill="#E3F0E5" d="M-8.615 15.885h32.926V-9.261H-8.615z" mask="url(#n)"/>
        </g>
        <g transform="translate(54.41 96.425)">
            <mask id="p" fill="#fff">
                <use xlink:href="#o"/>
            </mask>
            <path fill="#27A846" d="M-9.027 19.16H26.63V-8.798H-9.027z" mask="url(#p)"/>
        </g>
        <g transform="translate(75.41 94.516)">
            <mask id="r" fill="#fff">
                <use xlink:href="#q"/>
            </mask>
            <path fill="#E3F0E5" d="M-8.779 19.702h32.926V-9.215H-8.779z" mask="url(#r)"/>
        </g>
        <g transform="translate(74.455 92.607)">
            <mask id="t" fill="#fff">
                <use xlink:href="#s"/>
            </mask>
            <path fill="#27A846" d="M-9.191 22.979h35.658V-9.013H-9.191z" mask="url(#t)"/>
        </g>
        <g transform="translate(95.455 78.289)">
            <mask id="v" fill="#fff">
                <use xlink:href="#u"/>
            </mask>
            <path fill="#E3F0E5" d="M-8.942 35.93h32.926V-8.65H-8.942z" mask="url(#v)"/>
        </g>
        <g transform="translate(94.5 75.425)">
            <mask id="x" fill="#fff">
                <use xlink:href="#w"/>
            </mask>
            <path fill="#27A846" d="M-9.354 40.16h35.66V-8.62h-35.66z" mask="url(#x)"/>
        </g>
    </g>
</svg>
