<svg xmlns="http://www.w3.org/2000/svg" xmlns:xlink="http://www.w3.org/1999/xlink" width="56" height="66" viewBox="0 0 56 66">
    <defs>
        <path id="a" d="M37.132 3.032a2.63 2.63 0 0 0-.474.286c-.205-.053-1.668-.39-1.668-.39C22.529.242 14.16 5.347 14.138 5.36 9.742 7.948 7.09 11.938 6.36 17.009c-.076-.01-.154-.015-.233-.022a4.072 4.072 0 0 0-.296-1.636c-.464-1.182-1.424-2.035-2.443-2.173-.802-.11-1.567.239-2.095.95C.526 15.16.651 15.977.891 16.48c.405.853 1.447 1.453 3.176 1.831-.048.072-.097.146-.157.22-1.023 1.303-2.223 1.592-3.007 1.62a.852.852 0 0 0-.824.855v.004c0 .459.356.833.809.855.056.003.116.003.179.003.991 0 2.578-.371 4.104-2.314.239-.309.438-.633.588-.969.151.019.295.034.437.047-.028.443-.043.893-.043 1.353 0 3.409.798 6.45 2.378 9.038 1.453 2.388 3.531 4.341 6.186 5.809l1.094 5.787c.176.944.99 1.633 1.938 1.633h3.802c.947 0 1.761-.689 1.938-1.633l.556-2.994a32.96 32.96 0 0 0 3.561.189c1.661 0 3.317-.117 4.934-.349l.585 3.154a1.983 1.983 0 0 0 1.938 1.633h3.803a1.98 1.98 0 0 0 1.936-1.636l1.139-6.132c3.217-1.73 5.643-4.004 7.208-6.759a.888.888 0 0 1 .489-.409l3.651-1.192a3.078 3.078 0 0 0 2.113-2.947v-3.822a3.077 3.077 0 0 0-2.113-2.946l-2.265-.74a.956.956 0 0 1-.613-.632 14.991 14.991 0 0 0-2.141-4.31c-.431-.6-.91-1.172-1.432-1.719.334-1.491.516-3.181.494-4.639-.035-2.089-.443-3.312-1.255-3.744-.154-.082-.42-.224-1.021-.224-1.091 0-3.288.471-7.924 2.631zm1.704 8.551c-1.647-1.226-2.195-3.43-1.584-6.378a.985.985 0 0 1 .55-.685c4.032-1.879 6.357-2.492 7.218-2.492.132 0 .23.016.292.041.262.28.601 1.881.287 4.602-.308 2.695-1.141 5.004-1.975 5.485-.41.236-1.051.39-1.78.39-.96 0-2.072-.267-3.008-.963zM17.394 40.312l-1.127-5.951a1.29 1.29 0 0 0-.651-.897c-5.136-2.789-7.853-7.45-7.853-13.479 0-3.049.657-5.743 1.947-8.009 1.207-2.116 2.966-3.864 5.234-5.198.043-.026 7.755-4.668 19.226-2.359a25.054 25.054 0 0 1 1.531.343.741.741 0 0 0-.024.106c-.394 1.897-.37 3.574.074 4.982.397 1.271 1.117 2.296 2.136 3.054 1.198.897 2.648 1.28 3.963 1.28.988 0 1.9-.216 2.566-.603.759-.437 1.391-1.356 1.893-2.734a13.36 13.36 0 0 1 2.567 4.684c.249.805.868 1.44 1.658 1.697l2.264.74c.595.196.994.751.994 1.387v3.822c0 .634-.399 1.192-.994 1.387l-3.651 1.188a2.506 2.506 0 0 0-1.39 1.152c-1.435 2.521-3.689 4.611-6.706 6.205a1.281 1.281 0 0 0-.661.902l-1.17 6.303a.363.363 0 0 1-.354.3h-3.803a.367.367 0 0 1-.355-.3l-.649-3.481a1.268 1.268 0 0 0-1.437-1.038 32.706 32.706 0 0 1-5.016.381c-1.259 0-2.498-.072-3.69-.211a1.273 1.273 0 0 0-1.395 1.04l-.615 3.309a.366.366 0 0 1-.355.3h-3.802a.363.363 0 0 1-.355-.302zM2.341 15.766c-.085-.175.113-.481.235-.65.199-.264.381-.318.52-.318.028 0 .056 0 .082.003.367.051.886.466 1.162 1.161.063.163.149.434.168.773-1.115-.236-1.982-.576-2.167-.969z"/>
        <path id="c" d="M7.943 3.778C5.676 5.112 3.917 6.86 2.71 8.976 1.42 11.242.763 13.936.763 16.985c0 6.029 2.717 10.69 7.853 13.479.34.185.579.513.65.897l1.128 5.951c.03.175.182.302.355.302h3.802a.366.366 0 0 0 .355-.3l.613-3.309a1.276 1.276 0 0 1 1.397-1.04c1.192.139 2.431.211 3.69.211 1.692 0 3.377-.126 5.016-.381a1.268 1.268 0 0 1 1.437 1.038l.648 3.481c.036.173.183.3.356.3h3.803a.363.363 0 0 0 .354-.3l1.17-6.303c.073-.39.315-.719.661-.902 3.017-1.594 5.271-3.684 6.706-6.205a2.506 2.506 0 0 1 1.39-1.152l3.651-1.188c.595-.196.994-.753.994-1.387v-3.822a1.45 1.45 0 0 0-.994-1.387l-2.264-.74a2.581 2.581 0 0 1-1.658-1.697 13.334 13.334 0 0 0-1.905-3.838 13.3 13.3 0 0 0-.662-.846c-.502 1.378-1.134 2.297-1.893 2.734-.666.387-1.578.603-2.566.603-1.315 0-2.765-.383-3.963-1.28-1.019-.758-1.74-1.783-2.136-3.054-.444-1.408-.468-3.085-.075-4.982a.91.91 0 0 1 .025-.106 25.054 25.054 0 0 0-.861-.205c-.218-.05-.67-.138-.67-.138a32.288 32.288 0 0 0-6.372-.644C12.934.776 7.978 3.758 7.943 3.778z"/>
        <path id="e" d="M.802 2.52a.988.988 0 0 0-.55.685C-.359 6.153.189 8.357 1.836 9.583c1.645 1.224 3.838 1.12 4.788.573.833-.481 1.667-2.79 1.975-5.485C8.913 1.95 8.574.349 8.312.069A.824.824 0 0 0 8.02.028C7.159.028 4.834.641.802 2.52z"/>
        <path id="g" d="M3.927 1.009c0 .573-.458 1.04-1.021 1.04a1.032 1.032 0 0 1-1.023-1.04c0-.453-.36-.82-.806-.82a.812.812 0 0 0-.804.82c0 1.477 1.18 2.678 2.633 2.678 1.451 0 2.631-1.201 2.631-2.678a.813.813 0 0 0-.805-.82.812.812 0 0 0-.805.82z"/>
        <path id="i" d="M.147 4.465h11.604V.643c-.91.036-1.862.054-2.835.054A86.73 86.73 0 0 1 .147.232v4.233z"/>
        <path id="k" d="M.823 3.26v4.205h11.605V.595C8.878 1.883 4.981 2.778.823 3.26z"/>
        <path id="m" d="M.5 9.368v9.097h11.606V.644C8.38 4.383 4.483 7.314.5 9.368z"/>
    </defs>
    <g fill="none" fill-rule="evenodd">
        <g>
            <mask id="b" fill="#fff">
                <use xlink:href="#a"/>
            </mask>
            <path fill="#07AE44" d="M-4.921 47.252h65.323V-4.599H-4.921z" mask="url(#b)"/>
        </g>
        <g transform="translate(7 3)">
            <mask id="d" fill="#fff">
                <use xlink:href="#c"/>
            </mask>
            <path fill="#FFF" d="M-4.237 42.613h56.029V-4.225H-4.237z" mask="url(#d)"/>
        </g>
        <g transform="translate(37 2)">
            <mask id="f" fill="#fff">
                <use xlink:href="#e"/>
            </mask>
            <path fill="#E1FFEC" d="M-4.99 15.546h18.716V-4.972H-4.99z" mask="url(#f)"/>
        </g>
        <g transform="translate(41 16)">
            <mask id="h" fill="#fff">
                <use xlink:href="#g"/>
            </mask>
            <path fill="#1BD75F" d="M-4.728 8.687h15.265V-4.811H-4.728z" mask="url(#h)"/>
        </g>
        <path fill="#1BD75F" d="M20.06 8.685a.75.75 0 0 1-.326-1.426c.172-.082 4.268-2.01 10.144-1.132a.75.75 0 1 1-.22 1.484c-5.43-.81-9.236.98-9.274 1a.737.737 0 0 1-.324.074"/>
        <path fill="#07AE44" d="M54.068 42.717a.9.9 0 0 1-.878-.707l-.71-3.228-3.604 1.649a.9.9 0 1 1-.748-1.637l4.616-2.112a.902.902 0 0 1 1.253.625l.951 4.316a.9.9 0 0 1-.88 1.094"/>
        <g transform="translate(8 60)">
            <mask id="j" fill="#fff">
                <use xlink:href="#i"/>
            </mask>
            <path fill="#E1FFEC" d="M-4.854 9.464H16.75V-4.768H-4.854z" mask="url(#j)"/>
        </g>
        <path fill="#07AE44" d="M9.047 63.565h9.804v-1.992c-3.056.08-6.402-.037-9.804-.35v2.342zm10.704 1.8H8.147a.902.902 0 0 1-.901-.9v-4.233a.904.904 0 0 1 .992-.895c4.019.412 7.986.546 11.477.406a.899.899 0 0 1 .936.899v3.823a.9.9 0 0 1-.9.9z"/>
        <g transform="translate(24 57)">
            <mask id="l" fill="#fff">
                <use xlink:href="#k"/>
            </mask>
            <path fill="#E1FFEC" d="M-4.177 12.465h21.605v-16.87H-4.177z" mask="url(#l)"/>
        </g>
        <path fill="#07AE44" d="M25.724 63.565h9.805v-4.706c-3.052 1.012-6.341 1.748-9.805 2.197v2.509zm10.705 1.8H24.824a.902.902 0 0 1-.901-.9v-4.206c0-.456.343-.84.797-.892 4.083-.474 7.919-1.354 11.402-2.617a.9.9 0 0 1 1.207.845v6.87a.9.9 0 0 1-.9.9z"/>
        <g transform="translate(41 46)">
            <mask id="n" fill="#fff">
                <use xlink:href="#m"/>
            </mask>
            <path fill="#E1FFEC" d="M-4.5 23.465h21.606v-27.82H-4.5z" mask="url(#n)"/>
        </g>
        <g fill="#07AE44">
            <path d="M42.4 63.564h9.806V48.768c-3.17 2.958-6.459 5.356-9.806 7.144v7.652zm10.706 1.801H41.5a.902.902 0 0 1-.9-.9v-9.097a.9.9 0 0 1 .488-.8c3.893-2.008 7.722-4.888 11.38-8.56a.9.9 0 1 1 1.538.636v17.82a.9.9 0 0 1-.9.902zM16.034 56.669c-2.682 0-5.478-.187-8.384-.597a.9.9 0 1 1 .25-1.783c24.29 3.425 40.597-8.964 43.934-16.352a.9.9 0 0 1 1.64.74c-3.124 6.917-16.847 17.992-37.44 17.992"/>
        </g>
    </g>
</svg>
