<svg xmlns="http://www.w3.org/2000/svg" width="140" height="65" viewBox="0 0 140 65">
    <g fill="none" fill-rule="evenodd">
        <path fill="#E1FFEC" d="M134.132.638c3.24 0 5.868 2.64 5.868 5.898 0 3.257-2.627 5.898-5.868 5.898h-33.533c3.24 0 5.868 2.64 5.868 5.898 0 3.257-2.627 5.898-5.868 5.898h18.443c3.24 0 5.868 2.64 5.868 5.898 0 3.257-2.627 5.898-5.868 5.898h-8.53c-4.086 0-7.398 2.64-7.398 5.897 0 2.172 1.676 4.138 5.03 5.898 3.24 0 5.868 2.64 5.868 5.898 0 3.257-2.627 5.898-5.868 5.898H38.563c-3.241 0-5.868-2.64-5.868-5.898 0-3.257 2.627-5.898 5.868-5.898H5.868c-3.24 0-5.868-2.64-5.868-5.898 0-3.257 2.627-5.897 5.868-5.897h33.533c3.241 0 5.868-2.641 5.868-5.898 0-3.258-2.627-5.898-5.868-5.898H18.443c-3.24 0-5.868-2.64-5.868-5.898 0-3.257 2.627-5.898 5.868-5.898h33.533c-3.24 0-5.868-2.64-5.868-5.898 0-3.257 2.627-5.898 5.868-5.898h82.156zm0 23.592c3.24 0 5.868 2.64 5.868 5.898 0 3.257-2.627 5.898-5.868 5.898-3.241 0-5.869-2.641-5.869-5.898 0-3.258 2.628-5.898 5.869-5.898z"/>
        <path stroke="#1BD75F" stroke-linecap="round" stroke-linejoin="round" stroke-width="2.025" d="M122.67 23.387h-14.398m20.267 0h-1.862m-9.308 6.553h-6.854M42.054 41.08H27.655m-4.883 0h-3.538m26.74 7.396H39.12"/>
        <g fill-rule="nonzero">
            <path fill="#07AE44" d="M68.864 19.02c0-2.566 2.143-4.722 4.7-4.793h23.91c2.635 0 4.76 2.16 4.76 4.792v14.7c0 2.654-2.147 4.793-4.76 4.793H84.262l-7.03 6.82c-.186.134-.361.206-.556.206-.02 0-.156-.04-.248-.086-.346-.15-.498-.385-.498-.748v-6.192h-2.306c-2.635 0-4.76-2.16-4.76-4.793v-14.7zm31.88 0c0-1.679-1.437-3.124-3.11-3.124h-23.93a3.123 3.123 0 0 0-3.109 3.123v14.7c0 1.703 1.38 3.123 3.11 3.123h3.051a.83.83 0 0 1 .826.835v5.13l5.926-5.759c.185-.133.36-.206.556-.206h13.57a3.123 3.123 0 0 0 3.11-3.123v-14.7zM52 59.887V7.146C52 4.866 53.856 3 56.118 3h29.15c2.263 0 4.118 1.866 4.118 4.146v2.585a.83.83 0 0 1-.825.834.829.829 0 0 1-.826-.834V7.146c0-1.355-1.116-2.477-2.467-2.477h-29.15c-1.351 0-2.466 1.122-2.466 2.477v52.742c0 1.355 1.115 2.477 2.466 2.477h29.15c1.351 0 2.467-1.122 2.467-2.477V43.17a.83.83 0 0 1 .826-.834c.449 0 .825.365.825.834v16.72c0 2.28-1.855 4.146-4.118 4.146h-29.15c-2.262 0-4.118-1.867-4.118-4.147zm23.173-4.119a.83.83 0 0 1-.826.835h-7.468a.829.829 0 0 1-.826-.835.83.83 0 0 1 .826-.834h7.468c.496 0 .826.331.826.834z"/>
            <path fill="#00742A" d="M85 24.375l1.128-1.904c.186-.314.356-.471.58-.471.147 0 .309.067.525.187l.526.291c.324.18.487.344.487.553 0 .134-.07.298-.193.5l-1.167 1.927h2.303c.633 0 .811.172.811.777v.545c0 .605-.178.784-.811.784h-2.296l1.152 1.935c.123.201.185.366.185.5 0 .217-.154.374-.494.553l-.503.269c-.208.112-.378.172-.525.172-.224 0-.394-.15-.587-.471L85 28.655l-1.128 1.867c-.193.321-.363.478-.588.478-.139 0-.309-.06-.517-.18l-.526-.29c-.332-.187-.494-.344-.494-.56 0-.135.061-.292.185-.494l1.151-1.912h-2.272c-.626 0-.811-.179-.811-.784v-.545c0-.605.185-.777.811-.777h2.265l-1.152-1.927c-.123-.202-.185-.358-.185-.493 0-.216.162-.38.494-.56l.534-.291c.216-.12.378-.187.525-.187.224 0 .394.157.58.47L85 24.376z"/>
        </g>
    </g>
</svg>
