<svg xmlns="http://www.w3.org/2000/svg" width="274" height="157" viewBox="0 0 274 157">
    <g fill="none" fill-rule="evenodd">
        <path fill="#E1FFEC" d="M150.954 38.54c4.904 0 8.88 4.026 8.88 8.993 0 4.966-3.976 8.993-8.88 8.993h81.185c4.904 0 8.88 4.026 8.88 8.992 0 4.967-3.976 8.993-8.88 8.993h27.907c4.904 0 8.88 4.026 8.88 8.993 0 4.966-3.976 8.992-8.88 8.992h-24.102c-4.904 0-8.88 4.027-8.88 8.993 0 4.967 3.976 8.993 8.88 8.993h7.612c4.904 0 8.88 4.026 8.88 8.992 0 4.967-3.976 8.993-8.88 8.993H58.352c-4.904 0-8.88-4.026-8.88-8.993 0-4.966 3.976-8.992 8.88-8.992H8.88c-4.904 0-8.88-4.026-8.88-8.993 0-4.966 3.976-8.993 8.88-8.993h50.74c4.904 0 8.88-4.026 8.88-8.992 0-4.967-3.976-8.993-8.88-8.993H27.907c-4.904 0-8.88-4.026-8.88-8.993 0-4.966 3.976-8.992 8.88-8.992h50.741c-4.904 0-8.88-4.027-8.88-8.993 0-4.967 3.976-8.993 8.88-8.993h72.306zm114.166 71.942c4.904 0 8.88 4.026 8.88 8.992 0 4.967-3.976 8.993-8.88 8.993-4.904 0-8.88-4.026-8.88-8.993 0-4.966 3.976-8.992 8.88-8.992z" transform="translate(0 -12)"/>
        <path fill="#FFF" stroke="#07AE44" stroke-linecap="round" stroke-width="3.175" d="M177.965 138.803c3.862-2.472 7.29-5.565 9.517-8.065m3.593-4.156h0c1.84-2.261 3.493-4.628 4.957-7.08 3.22-5.39 5.53-11.19 6.926-17.175 1.412-6.054 1.89-12.298 1.43-18.502-.4-5.413-1.513-10.797-3.341-15.998-1.813-5.16-4.33-10.139-7.55-14.79-1.92-2.77-4.09-5.425-6.51-7.93-3.552-3.68-7.444-6.83-11.574-9.45-4.438-2.816-9.151-5.018-14.016-6.603-6.093-1.986-12.424-3.006-18.75-3.053-4.921-.037-9.84.515-14.641 1.66-5.405 1.287-10.66 3.324-15.604 6.116-4.345 2.454-8.449 5.49-12.2 9.113-4.714 4.552-8.523 9.693-11.425 15.203-2.842 5.394-4.814 11.14-5.915 17.034-1.135 6.072-1.344 12.299-.627 18.455.93 7.978 3.415 15.838 7.463 23.086 2.59 4.637 5.82 9.024 9.69 13.032 6.144 6.362 13.3 11.144 20.952 14.333 9.306 3.878 19.345 5.4 29.19 4.542 8.263-.72 16.389-3.117 23.829-7.204" transform="translate(0 -12)"/>
        <g stroke="#1BD75F" stroke-linecap="round" stroke-linejoin="round" stroke-width="3.175">
            <path d="M13.319 0L13.319 7.708M13.319 17.985L13.319 25.693" transform="translate(0 -12) translate(189.01 14.131)"/>
            <path d="M4.44 9.041L4.44 16.652" transform="translate(0 -12) translate(189.01 14.131) rotate(-90 4.44 12.847)"/>
            <path d="M22.199 9.041L22.199 16.652" transform="translate(0 -12) translate(189.01 14.131) rotate(-90 22.2 12.847)"/>
        </g>
        <g stroke="#1BD75F" stroke-linecap="round" stroke-linejoin="round" stroke-width="3.175">
            <path d="M10.782 0L10.782 5.139M10.782 15.416L10.782 20.555" transform="translate(0 -12) translate(86.26 146.453)"/>
            <path d="M3.171 7.74L3.171 12.814" transform="translate(0 -12) translate(86.26 146.453) rotate(-90 3.171 10.277)"/>
            <path d="M18.394 7.74L18.394 12.814" transform="translate(0 -12) translate(86.26 146.453) rotate(-90 18.394 10.277)"/>
        </g>
        <path fill="#FFF" stroke="#1BD75F" stroke-linecap="round" stroke-width="3.175" d="M124.566 37.053c-2.596.96-5.13 2.13-7.578 3.512-3.802 2.148-7.392 4.805-10.675 7.975-1.345 1.299-2.606 2.653-3.783 4.055m-3.638 4.885c-.934 1.42-1.793 2.875-2.576 4.362-.578 1.098-1.115 2.212-1.611 3.341" transform="translate(0 -12)"/>
        <path fill="#E8F0FE" fill-rule="nonzero" stroke="#07AE44" stroke-width="3.175" d="M119.216 86.546c-1.848-1.685-4.713-1.555-6.4.29-1.688 1.844-1.559 4.706.289 6.391l21.321 19.451c2.587 2.36 6.598 2.178 8.96-.404.1-.11.1-.11.195-.223l30.428-36.546c1.6-1.922 1.336-4.774-.588-6.372-1.923-1.597-4.78-1.335-6.38.586l-28.606 34.36-19.22-17.533z" transform="translate(0 -12)"/>
    </g>
</svg>
