<svg xmlns="http://www.w3.org/2000/svg" width="352" height="64" viewBox="0 0 352 64">
    <path fill="#BAF3CF" fill-rule="evenodd" d="M145.282 0v64h-2.034V0h2.034zm94.22 0v64h-2.035V0h2.034zM34.916 2.91v58.18h-2.035V2.91h2.035zm104.885 5.817v46.546h-2.035V8.727h2.035zm10.96 0v46.546h-2.034V8.727h2.035zm83.258 0v46.546h-2.035V8.727h2.035zm-99.698 3.88v38.787h-2.035V12.606h2.035zm-55.56.193v38.4h-2.035V12.8h2.035zm127.856 0v38.4h-2.035V12.8h2.035zm5.48 2.327v33.746h-2.034V15.127h2.034zm16.443 0v33.746h-2.035V15.127h2.035zm16.44 0v33.746h-2.034V15.127h2.035zm-88.738.388v32.97h-2.034v-32.97h2.034zM29.437 18.618v26.764h-2.035V18.618h2.035zm160.74 0v26.764h-2.035V18.618h2.035zm27.402 0v26.764h-2.035V18.618h2.035zm-54.804 1.53v23.704h-2.035V20.148h2.035zm-122.377.797v22.11h-2.035v-22.11h2.035zm10.961 0v22.11h-2.034v-22.11h2.034zm149.778 0v22.11h-2.034v-22.11h2.034zm-127.856.582v20.946h-2.035V21.527h2.035zm27.402 0v20.946H98.65V21.527h2.034zm149.78 0v20.946h-2.035V21.527h2.034zm44.597 0v20.946h-2.034V21.527h2.034zm-33.637 0v20.946h-2.035V21.527h2.035zm-93.169 2.715v15.516h-2.035V24.242h2.035zm-84.012.194v15.128h-2.035V24.436h2.035zm254.894 0v15.128H337.1V24.436h2.035zm-143.479 0v15.128h-2.035V24.436h2.035zm110.365 0v15.128h-2.034V24.436h2.034zm-282.066.931v13.266h-2.034V25.367h2.034zm160.74 0v13.266h-2.034V25.367h2.034zm-67.046.168v12.929h-2.034V25.535h2.034zm11.191 0v12.929h-2.035V25.535h2.035zM2.035 25.6v12.8H0V25.6h2.035zm43.843.582v11.636h-2.035V26.182h2.035zm176.919 0v11.636h-2.035V26.182h2.035zm-116.633 1.163v9.31h-2.035v-9.31h2.035zm149.779 0v9.31h-2.035v-9.31h2.035zm10.962 0v9.31h-2.035v-9.31h2.035zm33.637.582v8.146h-2.035v-8.146h2.035zm-243.703.582v6.982h-2.035v-6.982h2.035zm10.962 0v6.982h-2.035v-6.982h2.035zm21.921 0v6.982h-2.034v-6.982h2.034zm199.859 0v6.982h-2.035v-6.982h2.035zm-11.19 0v6.982h-2.035v-6.982h2.034zm33.112 0v6.982h-2.035v-6.982h2.035zm21.971 0v6.982h-2.034v-6.982h2.034zm-221.566.258v6.465h-2.035v-6.465h2.035zm-104.394.906v4.654H5.48v-4.654h2.035zm5.48.582v3.49H10.96v-3.49h2.034zm49.064 0v3.49h-2.035v-3.49h2.035zm33.145 0v3.49h-2.035v-3.49h2.035zm78.532 0v3.49h-2.034v-3.49h2.034zm171.93 0v3.49h-2.035v-3.49h2.035zm-17.491 0v3.49h-2.035v-3.49h2.035zm-55.528 0v3.49h-2.034v-3.49h2.034zm44.337 0v3.49h-2.035v-3.49h2.035zm-298.507.581v2.328H16.44v-2.328h2.035zm160.739 0v2.328h-2.035v-2.328h2.035zm-56.084.087v2.155h-2.035v-2.155h2.035zm160.739.495v1.164h-2.035v-1.164h2.035zm67.916 0v1.164h-2.034v-1.164h2.034zm-29.503 0v1.164h-2.034v-1.164h2.034z"/>
</svg>
