<svg xmlns="http://www.w3.org/2000/svg" width="18" height="14" viewBox="0 0 18 14">
    <g fill="#07AE44" fill-rule="nonzero">
        <path stroke="#07AE44" stroke-width=".4" d="M3.479 13.369h10.948a2.481 2.481 0 0 0 2.478-2.479V5.032a2.481 2.481 0 0 0-2.478-2.479h-1.261a.788.788 0 0 1-.75-.56l-.169-.566A1.537 1.537 0 0 0 10.782.333H7.123a1.537 1.537 0 0 0-1.465 1.094l-.168.566a.788.788 0 0 1-.75.56H3.477A2.481 2.481 0 0 0 1 5.032v5.858a2.481 2.481 0 0 0 2.479 2.479zM1.636 5.032A1.844 1.844 0 0 1 3.478 3.19H4.74A1.428 1.428 0 0 0 6.1 2.174l.168-.566a.897.897 0 0 1 .855-.639h3.66c.393.002.74.261.854.639l.168.566c.181.6.733 1.013 1.361 1.016h1.26a1.844 1.844 0 0 1 1.843 1.842v5.858a1.844 1.844 0 0 1-1.842 1.843H3.479a1.845 1.845 0 0 1-1.843-1.843V5.032zm7.317 6.614a3.685 3.685 0 1 0 0-7.37 3.685 3.685 0 0 0 0 7.37zm0-6.734a3.049 3.049 0 1 1 0 6.098 3.049 3.049 0 0 1 0-6.098z"/>
        <path d="M6.9 8.28a.318.318 0 0 1-.318-.319 2.373 2.373 0 0 1 2.37-2.37.318.318 0 0 1 0 .636A1.736 1.736 0 0 0 7.22 7.961a.318.318 0 0 1-.318.318z"/>
    </g>
</svg>
