<svg xmlns="http://www.w3.org/2000/svg" width="140" height="88" viewBox="0 0 140 88">
    <g fill="none" fill-rule="evenodd">
        <path fill="#E1FFEC" d="M134.132 12.638c3.24 0 5.868 2.64 5.868 5.898 0 3.257-2.627 5.898-5.868 5.898h-33.533c3.24 0 5.868 2.64 5.868 5.898 0 3.257-2.627 5.898-5.868 5.898h18.443c3.24 0 5.868 2.64 5.868 5.898 0 3.257-2.627 5.898-5.868 5.898h-8.53c-4.086 0-7.398 2.64-7.398 5.897 0 2.172 1.676 4.138 5.03 5.898 3.24 0 5.868 2.64 5.868 5.898 0 3.257-2.627 5.898-5.868 5.898H38.563c-3.241 0-5.868-2.64-5.868-5.898 0-3.257 2.627-5.898 5.868-5.898H5.868c-3.24 0-5.868-2.64-5.868-5.898 0-3.257 2.627-5.897 5.868-5.897h33.533c3.241 0 5.868-2.641 5.868-5.898 0-3.258-2.627-5.898-5.868-5.898H18.443c-3.24 0-5.868-2.64-5.868-5.898 0-3.257 2.627-5.898 5.868-5.898h33.533c-3.24 0-5.868-2.64-5.868-5.898 0-3.257 2.627-5.898 5.868-5.898h82.156zm0 23.592c3.24 0 5.868 2.64 5.868 5.898 0 3.257-2.627 5.898-5.868 5.898-3.241 0-5.869-2.641-5.869-5.898 0-3.258 2.628-5.898 5.869-5.898z"/>
        <path fill="#1BD75F" fill-rule="nonzero" d="M31.165 59.464a1.012 1.012 0 0 1 .11 2.019l-.11.006h-6.854a1.013 1.013 0 0 1-.11-2.02l.11-.005h6.854zm-3.92-7.396a1.013 1.013 0 0 1 .11 2.02l-.11.005H12.848a1.013 1.013 0 0 1-.11-2.019l.11-.006h14.399zm-19.28 0a1.013 1.013 0 0 1 .11 2.02l-.11.005h-3.54a1.013 1.013 0 0 1-.11-2.019l.11-.006h3.54zm109.548-11.14a1.013 1.013 0 0 1 .11 2.019l-.11.006h-6.854a1.012 1.012 0 0 1-.11-2.02l.11-.005h6.854zm5.301-6.553a1.012 1.012 0 0 1 .11 2.019l-.11.006h-14.398a1.012 1.012 0 0 1-.11-2.02l.11-.005h14.398zm5.869 0a1.013 1.013 0 0 1 .11 2.019l-.11.006h-1.862a1.013 1.013 0 0 1-.11-2.02l.11-.005h1.862z"/>
        <path fill="#07AE44" fill-rule="nonzero" d="M102.024 35.64c0-.674-.503-1.18-1.174-1.18H78.3V1.18C78.3.506 77.795 0 77.125 0 51.138 0 39.653 13.144 39.15 13.734a1.364 1.364 0 0 0-.252.758V75.83h63.126V35.64zM65.389 73.47H51.725V61.507h13.664v11.965z"/>
        <g fill="#FFF">
            <path d="M75.952 73.47h-8.215V60.328c0-.674-.503-1.18-1.174-1.18H50.55c-.67 0-1.174.506-1.174 1.18V73.47h-8.131V14.913c.838-.842 3.604-3.539 8.383-6.15 5.197-2.865 14-6.235 26.323-6.404v71.112zM99.677 73.47H78.299V36.82h21.378z"/>
        </g>
        <path fill="#1BD75F" fill-rule="nonzero" d="M92.383 61.338c.67 0 1.174.505 1.174 1.18v3.37c0 .674-.503 1.18-1.174 1.18-.67 0-1.173-.506-1.173-1.18v-3.37c0-.675.503-1.18 1.173-1.18zm-7.293 0c.67 0 1.173.505 1.173 1.18v3.37c0 .674-.503 1.18-1.173 1.18s-1.174-.506-1.174-1.18v-3.37c0-.675.503-1.18 1.174-1.18zm7.293-9.605c.67 0 1.174.505 1.174 1.18v3.37c0 .674-.503 1.18-1.174 1.18-.67 0-1.173-.506-1.173-1.18v-3.37c0-.675.503-1.18 1.173-1.18zm-7.293 0c.67 0 1.173.505 1.173 1.18v3.37c0 .674-.503 1.18-1.173 1.18s-1.174-.506-1.174-1.18v-3.37c0-.675.503-1.18 1.174-1.18zm-34.874-2.696c.67 0 1.173.505 1.173 1.18v3.117c0 .674-.503 1.18-1.173 1.18-.587 0-1.174-.59-1.174-1.18v-3.118c0-.674.503-1.18 1.174-1.18zm7.964 0c.67 0 1.173.505 1.173 1.18v3.117c0 .674-.503 1.18-1.173 1.18-.671 0-1.174-.59-1.174-1.18v-3.118c0-.674.503-1.18 1.174-1.18zm8.215 0c.67 0 1.174.505 1.174 1.18v3.117c0 .674-.503 1.18-1.174 1.18-.67 0-1.173-.59-1.173-1.18v-3.118c0-.674.503-1.18 1.173-1.18zm25.988-6.91c.67 0 1.174.506 1.174 1.18v3.37c0 .674-.503 1.18-1.174 1.18-.67 0-1.173-.506-1.173-1.18v-3.37c0-.674.503-1.18 1.173-1.18zm-7.293 0c.67 0 1.173.506 1.173 1.18v3.37c0 .674-.503 1.18-1.173 1.18s-1.174-.506-1.174-1.18v-3.37c0-.674.503-1.18 1.174-1.18zM50.216 40.19c.67 0 1.173.505 1.173 1.18v3.117c0 .674-.503 1.18-1.173 1.18-.587 0-1.174-.506-1.174-1.18v-3.118c0-.674.503-1.18 1.174-1.18zm7.964 0c.67 0 1.173.505 1.173 1.18v3.117c0 .674-.503 1.18-1.173 1.18-.671 0-1.174-.506-1.174-1.18v-3.118c0-.674.503-1.18 1.174-1.18zm8.215 0c.67 0 1.174.505 1.174 1.18v3.117c0 .674-.503 1.18-1.174 1.18-.67 0-1.173-.506-1.173-1.18v-3.118c0-.674.503-1.18 1.173-1.18zm-16.18-8.847c.671 0 1.174.506 1.174 1.18v3.117c0 .674-.503 1.18-1.173 1.18-.587 0-1.174-.506-1.174-1.18v-3.117c0-.674.503-1.18 1.174-1.18zm7.965 0c.67 0 1.173.506 1.173 1.18v3.117c0 .674-.503 1.18-1.173 1.18-.671 0-1.174-.506-1.174-1.18v-3.117c0-.674.503-1.18 1.174-1.18zm8.215 0c.67 0 1.174.506 1.174 1.18v3.117c0 .674-.503 1.18-1.174 1.18-.67 0-1.173-.506-1.173-1.18v-3.117c0-.674.503-1.18 1.173-1.18zm-16.18-8.847c.671 0 1.174.506 1.174 1.18v3.117c0 .674-.503 1.18-1.173 1.18-.587 0-1.174-.506-1.174-1.18v-3.117c0-.674.503-1.18 1.174-1.18zm7.965 0c.67 0 1.173.506 1.173 1.18v3.117c0 .674-.503 1.18-1.173 1.18-.671 0-1.174-.506-1.174-1.18v-3.117c0-.674.503-1.18 1.174-1.18zm8.215 0c.67 0 1.174.506 1.174 1.18v3.117c0 .674-.503 1.18-1.174 1.18-.67 0-1.173-.506-1.173-1.18v-3.117c0-.674.503-1.18 1.173-1.18zM58.18 13.65c.67 0 1.173.506 1.173 1.18v3.117c0 .674-.503 1.18-1.173 1.18-.671 0-1.174-.506-1.174-1.18V14.83c0-.674.503-1.18 1.174-1.18zm8.215 0c.67 0 1.174.506 1.174 1.18v3.117c0 .674-.503 1.18-1.174 1.18-.67 0-1.173-.506-1.173-1.18V14.83c0-.674.503-1.18 1.173-1.18z"/>
        <g>
            <path fill="#00742A" d="M109.034 79.922a9.238 9.238 0 0 0 1.83-3.709 9.4 9.4 0 0 0-2.394-8.715 9.369 9.369 0 0 0-6.751-2.882 9.374 9.374 0 0 0-2.235.264 9.242 9.242 0 0 0-4.254 2.343 9.27 9.27 0 0 0-2.67 4.93 9.413 9.413 0 0 0 2.482 8.312 9.415 9.415 0 0 0 3.187 2.17 9.418 9.418 0 0 0 4.45.672 9.28 9.28 0 0 0 3.64-1.117l2.715-2.268z"/>
            <path fill="#FFF" fill-rule="nonzero" d="M94.715 66.689a10.013 10.013 0 0 0-2.883 5.324 10.156 10.156 0 0 0 2.677 8.967 10.157 10.157 0 0 0 3.437 2.341c1.52.627 3.17.875 4.802.725a10.023 10.023 0 0 0 3.932-1.206l.117-.08 2.714-2.269.099-.1a9.98 9.98 0 0 0 1.978-4.006 10.143 10.143 0 0 0-2.583-9.404 10.11 10.11 0 0 0-7.283-3.108 10.116 10.116 0 0 0-2.413.285 9.984 9.984 0 0 0-4.594 2.53zm1.032 1.068a8.5 8.5 0 0 1 3.913-2.156 8.68 8.68 0 0 1 6.656 1.091 8.732 8.732 0 0 1 2.53 2.432 8.628 8.628 0 0 1 1.51 4.317c.06.874-.011 1.751-.213 2.6a8.51 8.51 0 0 1-.983 2.415l-.217.342a8.493 8.493 0 0 1-.234.332l-.213.272-2.593 2.17.058-.032a8.538 8.538 0 0 1-3.35 1.027 8.676 8.676 0 0 1-4.099-.618 8.672 8.672 0 0 1-2.935-2 8.643 8.643 0 0 1-2.286-7.656c.16-.836.443-1.643.841-2.395a8.528 8.528 0 0 1 1.615-2.141z"/>
            <path fill="#FFF" fill-rule="nonzero" d="M98.966 73.958a.54.54 0 0 0-.756.034c-.2.215-.184.55.034.748l2.52 2.276a.755.755 0 0 0 1.058-.048c.012-.012.012-.012.023-.026l3.595-4.276a.526.526 0 0 0-.07-.746.54.54 0 0 0-.753.069l-3.38 4.02-2.27-2.051z"/>
        </g>
    </g>
</svg>
