<svg xmlns="http://www.w3.org/2000/svg" width="132" height="62" viewBox="0 0 132 62">
    <g fill="none" fill-rule="evenodd">
        <path fill="#E1FFEC" d="M126.307 1.54c3.052 0 5.526 2.501 5.526 5.587s-2.474 5.587-5.526 5.587H94.731c3.051 0 5.525 2.502 5.525 5.588 0 3.085-2.474 5.587-5.525 5.587h17.367c3.052 0 5.526 2.501 5.526 5.587s-2.474 5.587-5.526 5.587h-8.032c-3.848 0-6.967 2.502-6.967 5.588 0 2.057 1.579 3.92 4.736 5.587 3.052 0 5.526 2.502 5.526 5.587 0 3.086-2.474 5.588-5.526 5.588H36.313c-3.052 0-5.526-2.502-5.526-5.588 0-3.085 2.474-5.587 5.526-5.587H5.526C2.474 46.238 0 43.737 0 40.651s2.474-5.588 5.526-5.588h31.577c3.052 0 5.526-2.501 5.526-5.587s-2.474-5.587-5.526-5.587H17.367c-3.052 0-5.526-2.502-5.526-5.587 0-3.086 2.474-5.588 5.526-5.588h31.577c-3.052 0-5.526-2.501-5.526-5.587s2.474-5.587 5.526-5.587h77.363zm0 22.857c3.052 0 5.526 2.501 5.526 5.587s-2.474 5.587-5.526 5.587c-3.052 0-5.526-2.501-5.526-5.587s2.474-5.587 5.526-5.587z"/>
        <path fill="#07AE44" fill-rule="nonzero" d="M53 57.267V3.717c0-2.314 1.837-4.21 4.076-4.21h28.848c2.24 0 4.076 1.896 4.076 4.21V38.85c0 .463-.36.847-.817.847a.831.831 0 0 1-.817-.847V3.718c0-1.376-1.104-2.515-2.442-2.515H57.076c-1.338 0-2.442 1.139-2.442 2.515v53.549c0 1.375 1.104 2.514 2.442 2.514h28.848c1.338 0 2.442-1.139 2.442-2.514v-11.88c0-.463.359-.848.817-.848.445 0 .817.37.817.848v11.88c0 2.314-1.837 4.21-4.076 4.21H57.076c-2.24 0-4.076-1.896-4.076-4.21zm22.933-4.183c0 .463-.359.848-.817.848h-7.391a.831.831 0 0 1-.817-.848c0-.463.36-.847.817-.847h7.391c.49 0 .817.337.817.847z"/>
        <path fill="#FFF" d="M62.795 12.806h17.41v17.686h-17.41z"/>
        <path stroke="#1BD75F" stroke-linecap="square" d="M62.795 20.333h17"/>
        <path fill="#07AE44" fill-rule="nonzero" d="M79.205 12.006l.148.006a1.8 1.8 0 0 1 1.652 1.794v15.686a1.8 1.8 0 0 1-1.8 1.8h-15.41a1.8 1.8 0 0 1-1.8-1.8V13.806a1.8 1.8 0 0 1 1.8-1.8h15.41zm-15.41 1.6a.2.2 0 0 0-.2.2v15.686c0 .11.09.2.2.2h15.41a.2.2 0 0 0 .2-.2V13.806a.2.2 0 0 0-.147-.193l-.053-.007h-15.41z"/>
        <path fill="#1BD75F" fill-rule="nonzero" d="M104.068 28.66h6.454a1.013 1.013 0 0 1 .11 2.02l-.11.005h-6.454a1.013 1.013 0 0 1-.11-2.019l.11-.006h6.454-6.454zm-2.112-6.268h13.559a1.012 1.012 0 0 1 .11 2.019l-.11.006h-13.56a1.013 1.013 0 0 1-.11-2.02l.11-.005h13.56-13.56zm17.331 0h1.754a1.012 1.012 0 0 1 .11 2.019l-.11.006h-1.754a1.013 1.013 0 0 1-.11-2.02l.11-.005h1.754-1.754zM36.838 46.392h6.454a1.013 1.013 0 0 1 .11 2.02l-.11.005h-6.454a1.012 1.012 0 0 1-.11-2.019l.11-.006h6.454-6.454zm-10.796-7.074H39.6a1.013 1.013 0 0 1 .11 2.019l-.11.006H26.04a1.013 1.013 0 0 1-.11-2.02l.11-.005h13.56-13.56zm-7.93 0h3.332a1.013 1.013 0 0 1 .11 2.019l-.11.006h-3.332a1.013 1.013 0 0 1-.11-2.02l.11-.005h3.332-3.332z"/>
    </g>
</svg>
