<svg xmlns="http://www.w3.org/2000/svg" width="140" height="63" viewBox="0 0 140 63">
    <g fill="none" fill-rule="evenodd">
        <path fill="#E1FFEC" d="M134.132.638c3.24 0 5.868 2.64 5.868 5.898 0 3.257-2.627 5.898-5.868 5.898h-33.533c3.24 0 5.868 2.64 5.868 5.898 0 3.257-2.627 5.898-5.868 5.898h18.443c3.24 0 5.868 2.64 5.868 5.898 0 3.257-2.627 5.898-5.868 5.898h-8.53c-4.086 0-7.398 2.64-7.398 5.897 0 2.172 1.676 4.138 5.03 5.898 3.24 0 5.868 2.64 5.868 5.898 0 3.257-2.627 5.898-5.868 5.898H38.563c-3.241 0-5.868-2.64-5.868-5.898 0-3.257 2.627-5.898 5.868-5.898H5.868c-3.24 0-5.868-2.64-5.868-5.898 0-3.257 2.627-5.897 5.868-5.897h33.533c3.241 0 5.868-2.641 5.868-5.898 0-3.258-2.627-5.898-5.868-5.898H18.443c-3.24 0-5.868-2.64-5.868-5.898 0-3.257 2.627-5.898 5.868-5.898h33.533c-3.24 0-5.868-2.64-5.868-5.898 0-3.257 2.627-5.898 5.868-5.898h82.156zm0 23.592c3.24 0 5.868 2.64 5.868 5.898 0 3.257-2.627 5.898-5.868 5.898-3.241 0-5.869-2.641-5.869-5.898 0-3.258 2.628-5.898 5.869-5.898z"/>
        <path stroke="#1BD75F" stroke-linecap="round" stroke-linejoin="round" stroke-width="2.025" d="M122.814 23.387h-14.398m20.267 0h-1.862m-9.308 6.553h-6.854M27.246 41.08h-14.4m-4.882 0H4.425m26.74 7.396h-6.854"/>
        <path fill="#07AE44" fill-rule="nonzero" d="M94.881 35.064c7.739 0 14.119 6.347 14.119 14.049C109 56.78 102.654 63 94.881 63c-7.772 0-14.118-6.22-14.118-13.887 0-7.702 6.38-14.049 14.118-14.049zm0 1.426c-6.959 0-12.692 5.703-12.692 12.623 0 6.893 5.706 12.462 12.692 12.462 6.987 0 12.693-5.57 12.693-12.462 0-6.92-5.733-12.623-12.693-12.623zM97.466 10c.308 0 .713.402.713.713v20.405c0 .896-1.427.896-1.427 0V12.164L75.08 30.274c-3.06 2.609-6.921 2.609-9.975.005l-1.337-1-.652-.486-18.751 20.089H76.63c.897 0 .897 1.425 0 1.425H42.713a.716.716 0 0 1-.713-.712V10.713c0-.403.333-.713.713-.713zm-54.04 2.159v35.528l18.682-19.86L43.426 12.16zm51.983-.734H44.593l21.445 17.807c2.431 2.047 5.671 2.047 8.108-.004l19.38-16.226 1.883-1.577z"/>
        <path fill="#00742A" fill-rule="nonzero" d="M95 47.375l1.128-1.904c.186-.314.356-.471.58-.471.147 0 .309.067.525.187l.526.291c.324.18.487.344.487.553 0 .134-.07.298-.193.5l-1.167 1.927h2.303c.633 0 .811.172.811.777v.545c0 .605-.178.784-.811.784h-2.296l1.152 1.935c.123.201.185.366.185.5 0 .217-.154.374-.494.553l-.503.269c-.208.112-.378.172-.525.172-.224 0-.394-.15-.587-.471L95 51.655l-1.128 1.867c-.193.321-.363.478-.588.478-.139 0-.309-.06-.517-.18l-.526-.29c-.332-.187-.494-.344-.494-.56 0-.135.061-.292.185-.494l1.151-1.912h-2.272c-.626 0-.811-.179-.811-.784v-.545c0-.605.185-.777.811-.777h2.265l-1.152-1.927c-.123-.202-.185-.358-.185-.493 0-.216.162-.38.494-.56l.534-.291c.216-.12.378-.187.525-.187.224 0 .394.157.58.47L95 47.376z"/>
    </g>
</svg>
