<?xml version="1.0" encoding="UTF-8"?>
<svg width="1080px" height="1080px" viewBox="0 0 1080 1080" version="1.1" xmlns="http://www.w3.org/2000/svg" xmlns:xlink="http://www.w3.org/1999/xlink">
    <!-- Generator: Sketch 57.1 (83088) - https://sketch.com -->
    <title>logo</title>
    <desc>Created with Sketch.</desc>
    <g id="logo" stroke="none" stroke-width="1" fill="none" fill-rule="evenodd">
        <g id="Group" transform="translate(111.891892, 60.000000)" fill="#FFFFFF">
            <path d="M443.854045,950.661059 C424.368074,962.706955 392.598147,962.52904 373.257671,950.263366 L35.178673,735.896653 C15.8174122,723.630979 -1.79767312e-12,694.756412 -1.79767312e-12,671.73211 L-1.79767312e-12,273.265174 C-1.79767312e-12,250.240872 16.2019353,221.983775 35.9892893,210.471624 L381.270303,9.64738617 C401.057657,-1.87523023 434.178611,-3.27761951 454.880507,6.52863986 L463.786894,10.7462733 C484.478398,20.5420671 485.195481,37.9672771 465.37695,49.4480312 L111.574072,254.44804 C91.7659327,265.928794 75.5536048,294.164961 75.5536048,317.189262 L75.5536048,629.723225 C75.5536048,652.747527 91.3814095,681.622094 110.721885,693.898233 L373.74612,860.667436 C393.096988,872.93311 424.866915,873.111025 444.352886,861.065129 L728.016661,685.661813 C747.502632,673.615917 764.359296,644.950661 765.481688,621.947291 L769.607517,537.563225 C770.719517,514.559855 755.588011,486.08298 735.956545,474.267327 L605.769473,395.890511 C586.1484,384.074858 586.293895,365.00655 606.102034,353.4944 L608.284463,352.228063 C628.102994,340.726378 660.392547,340.914758 680.065584,352.646687 L813.578261,432.331701 C833.251297,444.06363 848.434765,472.488177 847.301981,495.481081 L838.987967,665.777189 C837.865575,688.780559 820.998518,717.445815 801.52294,729.502176 L443.854045,950.661059 Z" id="Fill-1"></path>
            <path d="M776.150647,689.133249 C765.612634,707.165464 740.888834,712.335466 721.215797,700.614003 L406.686244,513.31131 C387.002816,501.589847 387.085956,482.573867 406.883702,471.040785 L409.024561,469.79538 C428.811915,458.262298 461.132645,458.387885 480.836859,470.05702 L759.481048,635.120331 C779.185262,646.789466 786.68866,671.101035 776.150647,689.133249" id="Fill-3"></path>
            <path d="M597.569777,806.722544 C587.073334,824.786155 562.359926,830.008485 542.666105,818.339351 L214.408036,623.899124 C194.703822,612.229989 194.766177,593.224475 214.553531,581.680927 L216.642427,580.456453 C236.419389,568.90244 268.750512,568.965233 288.485903,580.592505 L580.765075,752.751488 C600.490074,764.37876 608.06622,788.658933 597.569777,806.722544" id="Fill-5"></path>
            <path d="M335.503733,348.746161 C315.643631,360.14319 283.354078,359.766429 263.764182,347.898448 L261.509005,346.537921 C241.919109,334.659474 242.12696,315.601632 261.966276,304.152275 L591.35713,114.275045 C611.196446,102.836154 643.496392,103.150122 663.107073,114.965775 L816.188861,207.188568 C835.809935,219.014687 850.369852,247.460165 848.551162,270.411207 L848.436844,271.740337 C846.628546,294.69138 829.075583,303.796445 809.464902,291.95986 L662.223709,203.159315 C642.62342,191.322731 610.313082,190.977367 590.452981,202.384862 L335.503733,348.746161 Z" id="Fill-7" opacity="0.60672433"></path>
        </g>
    </g>
</svg>