<?xml version="1.0" encoding="utf-8"?>
<!-- Generator: Adobe Illustrator 21.1.0, SVG Export Plug-In . SVG Version: 6.00 Build 0)  -->
<svg version="1.1" id="Camada_1" xmlns="http://www.w3.org/2000/svg" xmlns:xlink="http://www.w3.org/1999/xlink" x="0px" y="0px"
	 viewBox="0 0 395 153" style="enable-background:new 0 0 395 153;" xml:space="preserve">
<style type="text/css">
	.st0{opacity:0.66;}
</style>
<g>
	<g>
		<path d="M97.7,73.5l-12.8-7.6c-1.9-1.1-5-1.1-6.9,0L77.8,66c-1.9,1.1-1.9,2.9,0,4.1l12.5,7.5c1.9,1.1,3.3,3.9,3.2,6l-0.5,8
			c0,0.5-0.1,1-0.3,1.5c-0.1-0.1-0.2-0.2-0.3-0.2L65.7,77.1c-1.9-1.1-5-1.1-6.9,0l-0.2,0.1c-1.9,1.1-1.9,2.9,0,4L88,98.6l-11.2,6.9
			c-0.4-0.6-0.8-1-1.4-1.4L47.2,87.6c-1.9-1.1-5-1.1-6.9,0L40,87.7c-1.9,1.1-1.9,2.9,0,4l30.1,17.7l-8,4.9c-1.9,1.2-4.9,1.1-6.8,0
			L30,98.5c-1.9-1.2-3.4-3.9-3.4-6.1V62.5c0-2.2,1.6-4.9,3.5-6l34-19.6c1.9-1.1,1.8-2.8-0.2-3.7L63,32.8c-2-0.9-5.2-0.8-7.1,0.3
			l-33,19.2c-1.9,1.1-3.5,3.8-3.5,6v38.1c0,2.2,1.5,5,3.4,6.1L55.3,123c1.9,1.2,4.9,1.2,6.8,0l34.4-21.1c1.9-1.2,3.5-3.9,3.6-6.1
			l0.8-16.3C101,77.3,99.6,74.6,97.7,73.5z"/>
		<g class="st0">
			<path d="M51.7,65.5c-1.9,1.1-5,1.1-6.9-0.1l-0.2-0.1c-1.9-1.1-1.9-3,0-4l31.7-18.1c1.9-1.1,5-1.1,6.9,0.1L97.9,52
				c1.9,1.1,3.3,3.8,3.1,6v0.1c-0.2,2.2-1.9,3.1-3.8,1.9L83,51.5c-1.9-1.1-5-1.2-6.9-0.1L51.7,65.5z"/>
		</g>
	</g>
	<g>
		<g>
			<path d="M155.5,62.2c0.4,0,0.8-0.1,1.2-0.1c2.1,0,2.9,0.9,3.2,3.4l0.1,0.6c0,0.5,0.1,0.9,0.1,1.3c0,2.1-0.8,3-3.4,3.4
				c-2.5,0.4-5.4,0.6-8.5,0.6c-15.2,0-19-7-19-23.1s3.8-23.1,19-23.1c3.2,0,6.1,0.3,8.5,0.7c2.6,0.4,3.4,1.3,3.4,3.4
				c0,0.4,0,0.8-0.1,1.3l-0.1,0.5c-0.3,2.5-1.1,3.4-3.1,3.4c-0.3,0-0.7,0-1.2-0.1c-1.9-0.2-3.9-0.3-5.9-0.3c-9.5,0-9.8,6-9.8,14.2
				s0.2,14.2,9.8,14.2C151.6,62.5,153.6,62.4,155.5,62.2z"/>
			<path d="M181.8,54.4c-1.4,0-2.9-0.1-4.1-0.2V67c0,3.1-0.9,4-4,4h-2.6c-3.1,0-4-0.9-4-4V30.5c0-3.2,0.8-4.2,3.9-4.6
				c3.3-0.4,7.1-0.7,11.1-0.7c10.2,0,18.4,2,18.4,14.5c0,7.7-3.1,11.6-8,13.3l8.2,14.4c0.5,0.8,0.7,1.5,0.7,2.1c0,1-0.9,1.5-2.8,1.5
				h-4c-3.4,0-4.3-0.5-5.9-3.5L181.8,54.4z M182.4,33.5c-1.5,0-3.2,0.1-4.7,0.3v11.9c1.5,0.2,3,0.2,4.6,0.2c5,0,7.8-1.3,7.8-6.3
				C190.1,35.3,188.2,33.5,182.4,33.5z"/>
			<path d="M233.1,43.7c3,0,3.9,0.9,3.9,3.9v0.7c0,3.1-0.9,3.9-3.9,3.9h-13.4v4.9c0,4.2,0.8,5.2,5.3,5.2h9c3,0,3.9,0.9,3.9,3.9v0.5
				c0,3.1-0.9,3.9-3.9,4.1c-3.1,0.1-6.8,0.2-8.8,0.2c-8.4,0-16-0.5-16-11.5V36.9c0-11,7.6-11.4,16-11.4c2.3,0,5.8,0.1,8.8,0.2
				c3.1,0.1,3.9,1,3.9,4.1v0.6c0,3-0.9,3.9-3.9,3.9h-9c-4.5,0-5.3,1-5.3,5.2v4.3h13.4V43.7z M224,15.5c1.4-1.8,1.9-2.1,4.3-2.1h5.1
				c1.1,0,1.6,0.2,1.6,0.7c0,0.3-0.3,0.7-0.8,1.3l-5,4.8c-1.7,1.6-2.2,1.8-4.6,1.8H222c-1.2,0-1.8-0.3-1.8-0.8
				c0-0.4,0.2-0.8,0.6-1.4L224,15.5z"/>
			<path d="M262.1,71.4c-4,0-7.8-0.3-11.1-0.7c-3.2-0.4-3.9-1.4-3.9-4.6V30.5c0-3.2,0.8-4.2,3.9-4.6c3.3-0.4,7.3-0.7,11.1-0.7
				c17.1,0,20.1,7.7,20.1,23.1S279.2,71.4,262.1,71.4z M257.6,62.4c0.9,0.1,2,0.2,3.3,0.2c10.6,0,10.7-6.2,10.7-14.4
				s-0.1-14.4-10.7-14.4c-1.3,0-2.4,0.1-3.3,0.3V62.4z"/>
			<path d="M297,25.6c3.1,0,4,0.9,4,4V67c0,3.1-0.9,4-4,4h-2.6c-3.1,0-4-0.9-4-4V29.6c0-3.1,0.9-4,4-4H297z"/>
			<path d="M335.2,25.6c3.1,0,3.9,0.9,3.9,3.9v0.8c0,3.1-0.9,3.9-3.9,3.9h-6.8V67c0,3.1-0.9,4-4,4h-2.7c-3.1,0-4-0.9-4-4V34.3H311
				c-3.1,0-3.9-0.9-3.9-3.9v-0.8c0-3.1,0.9-3.9,3.9-3.9h24.2V25.6z"/>
			<path d="M380.6,48.3c0,16.4-4.1,23.1-18.3,23.1c-14.2,0-18.3-6.7-18.3-23.1s4.1-23.1,18.3-23.1C376.5,25.2,380.6,31.9,380.6,48.3
				z M354.7,48.3c0,8.5,0.1,14.3,7.6,14.3s7.6-5.8,7.6-14.3S369.8,34,362.3,34S354.7,39.8,354.7,48.3z"/>
		</g>
		<g>
			<path d="M151.8,105.1c2.9,0,3.7,0.8,3.7,3.7v0.6c0,2.9-0.8,3.7-3.7,3.7h-12.7v4.7c0,4,0.7,4.9,5,4.9h8.5c2.8,0,3.7,0.8,3.7,3.7
				v0.5c0,2.9-0.8,3.7-3.7,3.8c-3,0.1-6.4,0.2-8.3,0.2c-7.9,0-15.1-0.5-15.1-10.8V98.8c0-10.4,7.2-10.8,15.1-10.8
				c2.1,0,5.5,0.1,8.3,0.2c2.9,0.1,3.7,1,3.7,3.8v0.5c0,2.9-0.8,3.7-3.7,3.7h-8.5c-4.2,0-5,0.9-5,4.9v4H151.8z"/>
			<path d="M199.2,127.7c0.5,0.8,0.8,1.5,0.8,1.9c0,0.9-0.8,1.3-2.6,1.3h-3.9c-3.2,0-4.1-0.5-5.8-3.2l-6.4-10.3l-6.2,10.3
				c-1.7,2.8-2.5,3.2-5.7,3.2h-3.5c-1.7,0-2.6-0.4-2.6-1.3c0-0.5,0.3-1.1,0.8-1.9l11.9-18.5l-11.4-17.8c-0.5-0.8-0.8-1.5-0.8-1.9
				c0-0.9,0.8-1.3,2.6-1.3h3.8c3.2,0,4.1,0.5,5.7,3.2l5.8,9.5l5.9-9.5c1.7-2.8,2.5-3.2,5.8-3.2h3.2c1.7,0,2.6,0.4,2.6,1.3
				c0,0.5-0.3,1.1-0.8,1.9L187.1,109L199.2,127.7z"/>
			<path d="M206.4,92.7c0-3,0.7-4,3.7-4.4c3.1-0.4,6.8-0.7,10.5-0.7c9.7,0,17.4,1.9,17.4,13.9c0,11.6-7,14.1-17,14.1
				c-1.5,0-3.3-0.1-4.7-0.1v11.7c0,2.9-0.8,3.8-3.8,3.8h-2.4c-2.9,0-3.8-0.8-3.8-3.8V92.7H206.4z M220.9,95.6c-1.4,0-3,0.1-4.4,0.3
				v11.5c1.4,0.2,2.8,0.2,4.3,0.2c4.7,0,7.4-1.3,7.4-6.1C228.1,97.3,226.4,95.6,220.9,95.6z"/>
			<path d="M258.4,115.3c-1.3,0-2.7-0.1-3.8-0.1v12c0,2.9-0.8,3.8-3.8,3.8h-2.4c-2.9,0-3.8-0.8-3.8-3.8V92.7c0-3,0.7-4,3.7-4.4
				c3.1-0.4,6.7-0.7,10.5-0.7c9.6,0,17.4,1.9,17.4,13.7c0,7.3-2.9,10.9-7.6,12.6l7.7,13.6c0.5,0.8,0.7,1.5,0.7,1.9
				c0,1-0.8,1.4-2.6,1.4h-3.8c-3.2,0-4-0.5-5.6-3.3L258.4,115.3z M259,95.6c-1.4,0-3,0.1-4.4,0.3v11.2c1.4,0.2,2.8,0.2,4.3,0.2
				c4.7,0,7.4-1.2,7.4-5.9C266.3,97.2,264.5,95.6,259,95.6z"/>
			<path d="M306.1,105.1c2.9,0,3.7,0.8,3.7,3.7v0.6c0,2.9-0.8,3.7-3.7,3.7h-12.7v4.7c0,4,0.7,4.9,5,4.9h8.5c2.8,0,3.7,0.8,3.7,3.7
				v0.5c0,2.9-0.8,3.7-3.7,3.8c-3,0.1-6.4,0.2-8.3,0.2c-7.9,0-15.1-0.5-15.1-10.8V98.8c0-10.4,7.2-10.8,15.1-10.8
				c2.1,0,5.5,0.1,8.3,0.2c2.9,0.1,3.7,1,3.7,3.8v0.5c0,2.9-0.8,3.7-3.7,3.7h-8.5c-4.2,0-5,0.9-5,4.9v4H306.1z"/>
			<path d="M329.7,113.3c-7.7-2.4-12.3-5-12.3-13.1c0-9.5,5.6-12.6,15.6-12.6c3.2,0,6.4,0.3,9,0.8c2.5,0.4,3.3,1.2,3.3,3.3
				c0,0.3,0,0.7-0.1,1.2v0.2c-0.2,2.4-1,3.3-2.9,3.3c-0.4,0-0.8,0-1.3-0.1c-1.9-0.3-4-0.4-6-0.4c-3.3,0-7.6,0.1-7.6,3.8
				c0,3.5,2.4,4,7.1,5.3c8.6,2.3,11.8,5.7,11.8,13.4c0,9.7-5.9,13.1-16.1,13.1c-3.3,0-6.4-0.3-9.1-0.7c-2.6-0.4-3.3-1.2-3.3-3.4
				c0-0.3,0-0.7,0.1-1.2V126c0.3-2.5,1.1-3.4,3.1-3.4c0.3,0,0.7,0,1.1,0.1c2.6,0.3,5.5,0.5,7.6,0.5c4.1,0,6.3-1,6.3-4.4
				C336,115.5,333.6,114.6,329.7,113.3z"/>
			<path d="M363.9,113.3c-7.7-2.4-12.3-5-12.3-13.1c0-9.5,5.6-12.6,15.6-12.6c3.2,0,6.4,0.3,9,0.8c2.5,0.4,3.3,1.2,3.3,3.3
				c0,0.3,0,0.7-0.1,1.2v0.2c-0.2,2.4-1,3.3-2.9,3.3c-0.4,0-0.8,0-1.3-0.1c-1.9-0.3-4-0.4-6-0.4c-3.3,0-7.6,0.1-7.6,3.8
				c0,3.5,2.4,4,7.1,5.3c8.6,2.3,11.8,5.7,11.8,13.4c0,9.7-5.9,13.1-16.1,13.1c-3.3,0-6.4-0.3-9.1-0.7c-2.6-0.4-3.3-1.2-3.3-3.4
				c0-0.3,0-0.7,0.1-1.2V126c0.3-2.5,1.1-3.4,3.1-3.4c0.3,0,0.7,0,1.1,0.1c2.6,0.3,5.5,0.5,7.6,0.5c4.1,0,6.3-1,6.3-4.4
				C370.2,115.5,367.9,114.6,363.9,113.3z"/>
		</g>
	</g>
</g>
</svg>
