<svg width="64" height="48" viewBox="0 0 64 48" fill="none" xmlns="http://www.w3.org/2000/svg">
<mask id="mask0" mask-type="alpha" maskUnits="userSpaceOnUse" x="0" y="0" width="64" height="48">
<path d="M42.437 3.38478C42.2458 3.47196 42.0641 3.57888 41.895 3.70378C41.661 3.64378 39.989 3.26778 39.989 3.26778C25.747 0.269777 16.183 5.96778 16.158 5.98278C11.134 8.87278 8.10303 13.3258 7.26803 18.9868C7.18203 18.9758 7.09303 18.9698 7.00203 18.9618C7.01897 18.3361 6.9038 17.7139 6.66403 17.1358C6.13403 15.8158 5.03703 14.8638 3.87203 14.7098C2.95503 14.5878 2.08203 14.9768 1.47803 15.7698C0.601027 16.9228 0.744027 17.8348 1.01803 18.3958C1.48103 19.3478 2.67203 20.0178 4.64803 20.4398C4.59303 20.5198 4.53803 20.6028 4.46803 20.6858C3.29903 22.1398 1.92803 22.4628 1.03203 22.4938C0.781578 22.499 0.543035 22.6017 0.367121 22.78C0.191206 22.9584 0.0917956 23.1983 0.0900269 23.4488V23.4528C0.0900269 23.9648 0.497027 24.3828 1.01503 24.4068C1.07903 24.4108 1.14703 24.4108 1.21903 24.4108C2.35203 24.4108 4.16603 23.9968 5.90903 21.8278C6.18303 21.4828 6.41003 21.1208 6.58203 20.7458C6.75403 20.7668 6.91903 20.7838 7.08203 20.7988C7.04903 21.2928 7.03203 21.7948 7.03203 22.3088C7.03203 26.1138 7.94403 29.5088 9.75003 32.3978C11.41 35.0628 13.785 37.2438 16.82 38.8818L18.07 45.3418C18.1699 45.8557 18.4457 46.3187 18.8499 46.6514C19.2541 46.984 19.7615 47.1656 20.285 47.1648H24.63C25.712 47.1648 26.642 46.3948 26.845 45.3418L27.48 41.9998C28.799 42.1398 30.17 42.2108 31.55 42.2108C33.448 42.2108 35.34 42.0808 37.189 41.8208L37.857 45.3418C37.9568 45.8557 38.2325 46.3189 38.6367 46.6516C39.0409 46.9843 39.5485 47.1658 40.072 47.1648H44.418C44.9418 47.1656 45.4494 46.9836 45.8533 46.6503C46.2573 46.3169 46.5323 45.8531 46.631 45.3388L47.933 38.4938C51.609 36.5628 54.382 34.0238 56.17 30.9488C56.3 30.7278 56.5 30.5658 56.73 30.4918L60.902 29.1618C61.6027 28.9424 62.2149 28.5049 62.6493 27.913C63.0838 27.3212 63.3177 26.606 63.317 25.8718V21.6058C63.317 20.0958 62.347 18.7758 60.902 18.3168L58.313 17.4908C58.1483 17.4378 57.9988 17.346 57.877 17.2231C57.7551 17.1003 57.6646 16.9499 57.613 16.7848C57.0655 15.0586 56.2389 13.4337 55.166 11.9748C54.6658 11.2974 54.1188 10.6558 53.529 10.0548C53.911 8.39078 54.119 6.50478 54.094 4.87678C54.054 2.54478 53.587 1.17978 52.659 0.696777C52.483 0.606777 52.179 0.446777 51.493 0.446777C50.246 0.446777 47.735 0.972777 42.437 3.38478ZM44.384 12.9298C42.502 11.5608 41.875 9.10078 42.574 5.80978C42.642 5.47978 42.878 5.19578 43.202 5.04578C47.81 2.94778 50.467 2.26378 51.452 2.26378C51.602 2.26378 51.714 2.28178 51.785 2.30978C52.085 2.62178 52.472 4.40978 52.113 7.44678C51.761 10.4548 50.809 13.0328 49.856 13.5688C49.387 13.8328 48.655 14.0048 47.822 14.0048C46.725 14.0048 45.454 13.7068 44.384 12.9298ZM19.879 44.9998L18.591 38.3558C18.5497 38.1441 18.4614 37.9443 18.3327 37.7712C18.2039 37.5982 18.0379 37.4562 17.847 37.3558C11.977 34.2418 8.87203 29.0388 8.87203 22.3088C8.87203 18.9048 9.62203 15.8978 11.097 13.3688C12.477 11.0068 14.487 9.05478 17.079 7.56578C17.128 7.53678 25.942 2.35578 39.051 4.93278C39.6381 5.04252 40.2217 5.17025 40.801 5.31578C40.7891 5.35438 40.7801 5.39383 40.774 5.43378C40.324 7.55178 40.351 9.42378 40.858 10.9948C41.312 12.4148 42.135 13.5578 43.299 14.4048C44.669 15.4048 46.326 15.8328 47.829 15.8328C48.958 15.8328 50 15.5928 50.761 15.1598C51.629 14.6718 52.351 13.6468 52.925 12.1078C54.2501 13.632 55.2486 15.4116 55.859 17.3368C56.0003 17.7809 56.246 18.1847 56.5755 18.5143C56.9051 18.8438 57.3089 19.0896 57.753 19.2308L60.341 20.0568C61.021 20.2768 61.477 20.8958 61.477 21.6058V25.8718C61.477 26.5798 61.021 27.2018 60.341 27.4198L56.168 28.7458C55.4976 28.9632 54.9314 29.4214 54.579 30.0318C52.939 32.8468 50.363 35.1798 46.915 36.9588C46.7208 37.0581 46.5519 37.2004 46.4211 37.375C46.2902 37.5495 46.2009 37.7515 46.16 37.9658L44.823 45.0018C44.8049 45.096 44.7546 45.1809 44.6807 45.242C44.6068 45.3031 44.5139 45.3366 44.418 45.3368H40.072C39.9762 45.3361 39.8834 45.3024 39.8095 45.2414C39.7355 45.1804 39.6849 45.0958 39.666 45.0018L38.925 41.1158C38.8553 40.7471 38.6448 40.42 38.3382 40.2037C38.0315 39.9874 37.6528 39.8988 37.282 39.9568C35.3848 40.2423 33.4687 40.3847 31.55 40.3828C30.141 40.3837 28.7331 40.3049 27.333 40.1468C26.9699 40.1033 26.6037 40.1987 26.3079 40.4138C26.0122 40.629 25.8086 40.9479 25.738 41.3068L25.035 45.0018C25.0164 45.0957 24.9659 45.1803 24.8921 45.2413C24.8184 45.3024 24.7258 45.3361 24.63 45.3368H20.285C20.1885 45.3369 20.0949 45.3032 20.0207 45.2414C19.9465 45.1796 19.8964 45.0938 19.879 44.9988V44.9998ZM2.67503 17.5998C2.57803 17.4038 2.80503 17.0618 2.94403 16.8738C3.17103 16.5788 3.37903 16.5188 3.53803 16.5188C3.57003 16.5188 3.60203 16.5188 3.63203 16.5218C4.05203 16.5788 4.64503 17.0418 4.96003 17.8178C5.03203 17.9998 5.13003 18.3028 5.15203 18.6808C3.87803 18.4168 2.88703 18.0378 2.67503 17.5988V17.5998Z" fill="white"/>
</mask>
<g mask="url(#mask0)">
<path fill-rule="evenodd" clip-rule="evenodd" d="M-5.62396 52.7457H69.031V-5.13428H-5.62396V52.7457Z" fill="white"/>
<path fill-rule="evenodd" clip-rule="evenodd" d="M3.15802 50.9168H67.19V-1.36719H3.15802V50.9168Z" fill="white"/>
<path d="M17.078 7.56587C14.487 9.05587 12.477 11.0059 11.098 13.3689C9.62203 15.8989 8.87103 18.9049 8.87103 22.3089C8.87103 29.0389 11.976 34.2419 17.846 37.3549C18.234 37.5619 18.508 37.9279 18.589 38.3569L19.878 44.9999C19.8956 45.0947 19.9458 45.1803 20.02 45.2419C20.0942 45.3035 20.1876 45.3371 20.284 45.3369H24.629C24.7248 45.3362 24.8174 45.3025 24.8911 45.2414C24.9649 45.1804 25.0154 45.0958 25.034 45.0019L25.735 41.3079C25.877 40.5679 26.577 40.0589 27.332 40.1479C28.7321 40.3056 30.1401 40.3841 31.549 40.3829C33.482 40.3829 35.409 40.2419 37.281 39.9569C38.058 39.8419 38.781 40.3509 38.924 41.1169L39.664 45.0019C39.705 45.1949 39.874 45.3369 40.071 45.3369H44.417C44.614 45.3369 44.787 45.1949 44.822 45.0019L46.159 37.9659C46.242 37.5309 46.519 37.1629 46.914 36.9589C50.362 35.1789 52.938 32.8469 54.578 30.0329C54.9305 29.4225 55.4966 28.9643 56.167 28.7469L60.34 27.4199C60.6693 27.316 60.9569 27.1099 61.1611 26.8316C61.3654 26.5533 61.4757 26.2171 61.476 25.8719V21.6059C61.476 20.8959 61.02 20.2759 60.34 20.0569L57.752 19.2309C57.3077 19.0898 56.9037 18.8441 56.574 18.5146C56.2442 18.185 55.9984 17.7811 55.857 17.3369C55.3704 15.7995 54.635 14.3523 53.68 13.0529C53.441 12.7299 53.191 12.4139 52.924 12.1079C52.35 13.6469 51.628 14.6729 50.76 15.1599C49.999 15.5919 48.957 15.8329 47.828 15.8329C46.325 15.8329 44.668 15.4059 43.298 14.4049C42.134 13.5579 41.31 12.4149 40.858 10.9949C40.35 9.42387 40.322 7.55187 40.772 5.43487C40.7789 5.39433 40.7882 5.35425 40.8 5.31487C40.4734 5.2332 40.1453 5.15719 39.816 5.08687C39.567 5.03087 39.05 4.93287 39.05 4.93287C36.6524 4.45808 34.2143 4.21729 31.77 4.21387C22.782 4.21487 17.118 7.54387 17.078 7.56587Z" fill="white"/>
<path fill-rule="evenodd" clip-rule="evenodd" d="M36.583 19.5866H57.973V-3.31738H36.583V19.5866Z" fill="white"/>
</g>
<path d="M17.078 7.56587C14.487 9.05587 12.477 11.0059 11.098 13.3689C9.62203 15.8989 8.87103 18.9049 8.87103 22.3089C8.87103 29.0389 11.976 34.2419 17.846 37.3549C18.234 37.5619 18.508 37.9279 18.589 38.3569L19.878 44.9999C19.8956 45.0947 19.9458 45.1803 20.02 45.2419C20.0942 45.3035 20.1876 45.3371 20.284 45.3369H24.629C24.7248 45.3362 24.8174 45.3025 24.8911 45.2414C24.9649 45.1804 25.0154 45.0958 25.034 45.0019L25.735 41.3079C25.877 40.5679 26.577 40.0589 27.332 40.1479C28.7321 40.3056 30.1401 40.3841 31.549 40.3829C33.482 40.3829 35.409 40.2419 37.281 39.9569C38.058 39.8419 38.781 40.3509 38.924 41.1169L39.664 45.0019C39.705 45.1949 39.874 45.3369 40.071 45.3369H44.417C44.614 45.3369 44.787 45.1949 44.822 45.0019L46.159 37.9659C46.242 37.5309 46.519 37.1629 46.914 36.9589C50.362 35.1789 52.938 32.8469 54.578 30.0329C54.9305 29.4225 55.4966 28.9643 56.167 28.7469L60.34 27.4199C60.6693 27.316 60.9569 27.1099 61.1611 26.8316C61.3654 26.5533 61.4757 26.2171 61.476 25.8719V21.6059C61.476 20.8959 61.02 20.2759 60.34 20.0569L57.752 19.2309C57.3077 19.0898 56.9037 18.8441 56.574 18.5146C56.2442 18.185 55.9984 17.7811 55.857 17.3369C55.3704 15.7995 54.635 14.3523 53.68 13.0529C53.441 12.7299 53.191 12.4139 52.924 12.1079C52.35 13.6469 51.628 14.6729 50.76 15.1599C49.999 15.5919 48.957 15.8329 47.828 15.8329C46.325 15.8329 44.668 15.4059 43.298 14.4049C42.134 13.5579 41.31 12.4149 40.858 10.9949C40.35 9.42387 40.322 7.55187 40.772 5.43487C40.7789 5.39433 40.7882 5.35425 40.8 5.31487C40.4734 5.2332 40.1453 5.15719 39.816 5.08687C39.567 5.03087 39.05 4.93287 39.05 4.93287C36.6524 4.45808 34.2143 4.21729 31.77 4.21387C22.782 4.21487 17.118 7.54387 17.078 7.56587Z" fill="white"/>
<path d="M43.203 5.0454C42.879 5.1954 42.643 5.4794 42.574 5.8104C41.876 9.1004 42.502 11.5604 44.384 12.9304C46.264 14.2964 48.771 14.1804 49.856 13.5694C50.808 13.0324 51.761 10.4554 52.113 7.4464C52.473 4.4094 52.086 2.6224 51.786 2.3094C51.6786 2.27464 51.5658 2.25907 51.453 2.2634C50.469 2.2634 47.812 2.9484 43.203 5.0454V5.0454Z" fill="white"/>
</svg>
