<svg xmlns="http://www.w3.org/2000/svg" width="532" height="338" viewBox="0 0 532 338">
    <g fill="#FFF" fill-rule="nonzero">
        <path d="M505.5 7a.5.5 0 0 1-1 0V1a.5.5 0 0 1 1 0v6zm0 12a.5.5 0 0 1-1 0v-6a.5.5 0 0 1 1 0v6zm0 12a.5.5 0 0 1-1 0v-6a.5.5 0 0 1 1 0v6zm0 12a.5.5 0 0 1-1 0v-6a.5.5 0 0 1 1 0v6zm0 12a.5.5 0 0 1-1 0v-6a.5.5 0 0 1 1 0v6zm0 12a.5.5 0 0 1-1 0v-6a.5.5 0 0 1 1 0v6zm0 12a.5.5 0 0 1-1 0v-6a.5.5 0 0 1 1 0v6zm0 12a.5.5 0 0 1-1 0v-6a.5.5 0 0 1 1 0v6zm0 12a.5.5 0 0 1-1 0v-6a.5.5 0 0 1 1 0v6zm0 12a.5.5 0 0 1-1 0v-6a.5.5 0 0 1 1 0v6zm0 12a.5.5 0 0 1-1 0v-6a.5.5 0 0 1 1 0v6zm0 12a.5.5 0 0 1-1 0v-6a.5.5 0 0 1 1 0v6zm0 12a.5.5 0 0 1-1 0v-6a.5.5 0 0 1 1 0v6zm0 12a.5.5 0 0 1-1 0v-6a.5.5 0 0 1 1 0v6zm0 12a.5.5 0 0 1-1 0v-6a.5.5 0 0 1 1 0v6zm0 12a.5.5 0 0 1-1 0v-6a.5.5 0 0 1 1 0v6zm0 12a.5.5 0 0 1-1 0v-6a.5.5 0 0 1 1 0v6zm0 12a.5.5 0 0 1-1 0v-6a.5.5 0 0 1 1 0v6zm0 12a.5.5 0 0 1-1 0v-6a.5.5 0 0 1 1 0v6zm0 12a.5.5 0 0 1-1 0v-6a.5.5 0 0 1 1 0v6zm0 12a.5.5 0 0 1-1 0v-6a.5.5 0 0 1 1 0v6zm0 12a.5.5 0 0 1-1 0v-6a.5.5 0 0 1 1 0v6zm0 12a.5.5 0 0 1-1 0v-6a.5.5 0 0 1 1 0v6zm0 12a.5.5 0 0 1-1 0v-6a.5.5 0 0 1 1 0v6zm0 12a.5.5 0 0 1-1 0v-6a.5.5 0 0 1 1 0v6zm0 12a.5.5 0 0 1-1 0v-6a.5.5 0 0 1 1 0v6zm0 12a.5.5 0 0 1-1 0v-6a.5.5 0 0 1 1 0v6zm0 12a.5.5 0 0 1-1 0v-6a.5.5 0 0 1 1 0v6zm-6.5 6.5a.5.5 0 0 1 0-1h6a.5.5 0 0 1 0 1h-6zm-12 0a.5.5 0 0 1 0-1h6a.5.5 0 0 1 0 1h-6zm-12 0a.5.5 0 0 1 0-1h6a.5.5 0 0 1 0 1h-6zm-12 0a.5.5 0 0 1 0-1h6a.5.5 0 0 1 0 1h-6zm-12 0a.5.5 0 0 1 0-1h6a.5.5 0 0 1 0 1h-6zm-12 0a.5.5 0 0 1 0-1h6a.5.5 0 0 1 0 1h-6zm-12 0a.5.5 0 0 1 0-1h6a.5.5 0 0 1 0 1h-6zm-12 0a.5.5 0 0 1 0-1h6a.5.5 0 0 1 0 1h-6zm-12 0a.5.5 0 0 1 0-1h6a.5.5 0 0 1 0 1h-6zm-12 0a.5.5 0 0 1 0-1h6a.5.5 0 0 1 0 1h-6zm-12 0a.5.5 0 0 1 0-1h6a.5.5 0 0 1 0 1h-6zm-12 0a.5.5 0 0 1 0-1h6a.5.5 0 0 1 0 1h-6zm-12 0a.5.5 0 0 1 0-1h6a.5.5 0 0 1 0 1h-6zm-12 0a.5.5 0 0 1 0-1h6a.5.5 0 0 1 0 1h-6zm-12 0a.5.5 0 0 1 0-1h6a.5.5 0 0 1 0 1h-6zm-12 0a.5.5 0 0 1 0-1h6a.5.5 0 0 1 0 1h-6zm-12 0a.5.5 0 0 1 0-1h6a.5.5 0 0 1 0 1h-6zm-12 0a.5.5 0 0 1 0-1h6a.5.5 0 0 1 0 1h-6zm-12 0a.5.5 0 0 1 0-1h6a.5.5 0 0 1 0 1h-6zm-12 0a.5.5 0 0 1 0-1h6a.5.5 0 0 1 0 1h-6zm-12 0a.5.5 0 0 1 0-1h6a.5.5 0 0 1 0 1h-6zm-12 0a.5.5 0 0 1 0-1h6a.5.5 0 0 1 0 1h-6zm-12 0a.5.5 0 0 1 0-1h6a.5.5 0 0 1 0 1h-6zm-12 0a.5.5 0 0 1 0-1h6a.5.5 0 0 1 0 1h-6zm-12 0a.5.5 0 0 1 0-1h6a.5.5 0 0 1 0 1h-6zm-12 0a.5.5 0 0 1 0-1h6a.5.5 0 0 1 0 1h-6zm-12 0a.5.5 0 0 1 0-1h6a.5.5 0 0 1 0 1h-6zm-12 0a.5.5 0 0 1 0-1h6a.5.5 0 0 1 0 1h-6zm-12 0a.5.5 0 0 1 0-1h6a.5.5 0 0 1 0 1h-6zm-12 0a.5.5 0 0 1 0-1h6a.5.5 0 0 1 0 1h-6zm-12 0a.5.5 0 0 1 0-1h6a.5.5 0 0 1 0 1h-6zm-12 0a.5.5 0 0 1 0-1h6a.5.5 0 0 1 0 1h-6zm-12 0a.5.5 0 0 1 0-1h6a.5.5 0 0 1 0 1h-6zm-12 0a.5.5 0 0 1 0-1h6a.5.5 0 0 1 0 1h-6zm-12 0a.5.5 0 0 1 0-1h6a.5.5 0 0 1 0 1h-6zm-12 0a.5.5 0 0 1 0-1h6a.5.5 0 0 1 0 1h-6zm-12 0a.5.5 0 0 1 0-1h6a.5.5 0 0 1 0 1h-6zm-12 0a.5.5 0 0 1 0-1h6a.5.5 0 0 1 0 1h-6zm-12 0a.5.5 0 0 1 0-1h6a.5.5 0 0 1 0 1h-6zm-12 0a.5.5 0 0 1 0-1h6a.5.5 0 0 1 0 1h-6zm-12 0a.5.5 0 0 1 0-1h6a.5.5 0 0 1 0 1h-6zm-12 0a.5.5 0 0 1 0-1h6a.5.5 0 0 1 0 1H7zM.5 331a.5.5 0 0 1 1 0v6a.5.5 0 0 1-1 0v-6zm0-12a.5.5 0 0 1 1 0v6a.5.5 0 0 1-1 0v-6zm0-12a.5.5 0 0 1 1 0v6a.5.5 0 0 1-1 0v-6zm0-12a.5.5 0 0 1 1 0v6a.5.5 0 0 1-1 0v-6zm0-12a.5.5 0 0 1 1 0v6a.5.5 0 0 1-1 0v-6zm0-12a.5.5 0 0 1 1 0v6a.5.5 0 0 1-1 0v-6zm0-12a.5.5 0 0 1 1 0v6a.5.5 0 0 1-1 0v-6zm0-12a.5.5 0 0 1 1 0v6a.5.5 0 0 1-1 0v-6zm0-12a.5.5 0 0 1 1 0v6a.5.5 0 0 1-1 0v-6zm0-12a.5.5 0 0 1 1 0v6a.5.5 0 0 1-1 0v-6zm0-12a.5.5 0 0 1 1 0v6a.5.5 0 0 1-1 0v-6zm0-12a.5.5 0 0 1 1 0v6a.5.5 0 0 1-1 0v-6zm0-12a.5.5 0 0 1 1 0v6a.5.5 0 0 1-1 0v-6zm0-12a.5.5 0 0 1 1 0v6a.5.5 0 0 1-1 0v-6zm0-12a.5.5 0 0 1 1 0v6a.5.5 0 0 1-1 0v-6zm0-12a.5.5 0 0 1 1 0v6a.5.5 0 0 1-1 0v-6zm0-12a.5.5 0 0 1 1 0v6a.5.5 0 0 1-1 0v-6zm0-12a.5.5 0 0 1 1 0v6a.5.5 0 0 1-1 0v-6zm0-12a.5.5 0 0 1 1 0v6a.5.5 0 0 1-1 0v-6zm0-12a.5.5 0 0 1 1 0v6a.5.5 0 0 1-1 0v-6zm0-12a.5.5 0 1 1 1 0v6a.5.5 0 1 1-1 0v-6zm0-12a.5.5 0 1 1 1 0v6a.5.5 0 1 1-1 0v-6zm0-12a.5.5 0 1 1 1 0v6a.5.5 0 1 1-1 0v-6zm0-12a.5.5 0 1 1 1 0v6a.5.5 0 1 1-1 0v-6zm0-12a.5.5 0 1 1 1 0v6a.5.5 0 1 1-1 0v-6zm0-12a.5.5 0 1 1 1 0v6a.5.5 0 1 1-1 0v-6zm0-12a.5.5 0 1 1 1 0v6a.5.5 0 1 1-1 0v-6zm0-12a.5.5 0 0 1 1 0v6a.5.5 0 1 1-1 0V7zM7 .5a.5.5 0 0 1 0 1H1a.5.5 0 1 1 0-1h6zm12 0a.5.5 0 1 1 0 1h-6a.5.5 0 1 1 0-1h6zm12 0a.5.5 0 1 1 0 1h-6a.5.5 0 1 1 0-1h6zm12 0a.5.5 0 1 1 0 1h-6a.5.5 0 1 1 0-1h6zm12 0a.5.5 0 1 1 0 1h-6a.5.5 0 1 1 0-1h6zm12 0a.5.5 0 1 1 0 1h-6a.5.5 0 1 1 0-1h6zm12 0a.5.5 0 1 1 0 1h-6a.5.5 0 1 1 0-1h6zm12 0a.5.5 0 1 1 0 1h-6a.5.5 0 1 1 0-1h6zm12 0a.5.5 0 0 1 0 1h-6a.5.5 0 1 1 0-1h6zm12 0a.5.5 0 0 1 0 1h-6a.5.5 0 0 1 0-1h6zm12 0a.5.5 0 0 1 0 1h-6a.5.5 0 0 1 0-1h6zm12 0a.5.5 0 0 1 0 1h-6a.5.5 0 0 1 0-1h6zm12 0a.5.5 0 0 1 0 1h-6a.5.5 0 0 1 0-1h6zm12 0a.5.5 0 0 1 0 1h-6a.5.5 0 0 1 0-1h6zm12 0a.5.5 0 0 1 0 1h-6a.5.5 0 0 1 0-1h6zm12 0a.5.5 0 0 1 0 1h-6a.5.5 0 0 1 0-1h6zm12 0a.5.5 0 0 1 0 1h-6a.5.5 0 0 1 0-1h6zm12 0a.5.5 0 0 1 0 1h-6a.5.5 0 0 1 0-1h6zm12 0a.5.5 0 0 1 0 1h-6a.5.5 0 0 1 0-1h6zm12 0a.5.5 0 0 1 0 1h-6a.5.5 0 0 1 0-1h6zm12 0a.5.5 0 0 1 0 1h-6a.5.5 0 0 1 0-1h6zm12 0a.5.5 0 0 1 0 1h-6a.5.5 0 0 1 0-1h6zm12 0a.5.5 0 0 1 0 1h-6a.5.5 0 0 1 0-1h6zm12 0a.5.5 0 0 1 0 1h-6a.5.5 0 0 1 0-1h6zm12 0a.5.5 0 0 1 0 1h-6a.5.5 0 0 1 0-1h6zm12 0a.5.5 0 0 1 0 1h-6a.5.5 0 0 1 0-1h6zm12 0a.5.5 0 0 1 0 1h-6a.5.5 0 0 1 0-1h6zm12 0a.5.5 0 0 1 0 1h-6a.5.5 0 0 1 0-1h6zm12 0a.5.5 0 0 1 0 1h-6a.5.5 0 0 1 0-1h6zm12 0a.5.5 0 0 1 0 1h-6a.5.5 0 0 1 0-1h6zm12 0a.5.5 0 0 1 0 1h-6a.5.5 0 0 1 0-1h6zm12 0a.5.5 0 0 1 0 1h-6a.5.5 0 0 1 0-1h6zm12 0a.5.5 0 0 1 0 1h-6a.5.5 0 0 1 0-1h6zm12 0a.5.5 0 0 1 0 1h-6a.5.5 0 0 1 0-1h6zm12 0a.5.5 0 0 1 0 1h-6a.5.5 0 0 1 0-1h6zm12 0a.5.5 0 0 1 0 1h-6a.5.5 0 0 1 0-1h6zm12 0a.5.5 0 0 1 0 1h-6a.5.5 0 0 1 0-1h6zm12 0a.5.5 0 0 1 0 1h-6a.5.5 0 0 1 0-1h6zm12 0a.5.5 0 0 1 0 1h-6a.5.5 0 0 1 0-1h6zm12 0a.5.5 0 0 1 0 1h-6a.5.5 0 0 1 0-1h6zm12 0a.5.5 0 0 1 0 1h-6a.5.5 0 0 1 0-1h6zm12 0a.5.5 0 0 1 0 1h-6a.5.5 0 0 1 0-1h6zM490.75 321.5h-474v-305h474v305zm-1-304h-472v303h472v-303z"/>
        <path d="M227.5 241.5h-186v-145h186v145zm-1-144h-184v143h184v-143zM436 241.5H250v-145h186v145zm-1-144H251v143h184v-143zM527.355 240.75V98.912l3.272 3.11c.218.215.873.215 1.091 0a.644.644 0 0 0 0-1.072l-4.69-4.29a1.005 1.005 0 0 0-1.092 0l-4.69 4.29c-.328.215-.328.75 0 .965.327.215.763.215 1.09 0l3.382-3.11v141.836c0 .536.327.858.764.858.436 0 .873-.215.873-.75z"/>
        <path d="M99.743 131.071a219.804 219.804 0 0 0-31.282 9.753c-1.031 1.282-2.012 2.513-2.892 3.92a212.482 212.482 0 0 1 34.753-11.21c19.603-4.608 39.232 7.54 43.843 27.134 4.61 19.594-7.543 39.214-27.146 43.823a129.746 129.746 0 0 0-27.661 9.425c.922.486 1.86.964 2.816 1.433a132.213 132.213 0 0 1 25.423-8.395c20.957-4.928 33.95-25.904 29.02-46.852-4.931-20.947-25.917-33.933-46.874-29.006v-.025zm24.845 34.184c.996 4.22.273 8.662-2.01 12.349a16.345 16.345 0 0 1-10.161 7.306 131.955 131.955 0 0 0-40.762 15.886l-1.61-1.76a132.105 132.105 0 0 1 41.794-16.564c7.437-1.749 12.047-9.193 10.297-16.626-1.75-7.434-9.197-12.042-16.634-10.293a167.371 167.371 0 0 0-47.276 18.298 31.962 31.962 0 0 1-.226-2.865 168.705 168.705 0 0 1 46.923-17.871c8.784-2.075 17.588 3.36 19.665 12.14zm14.686-3.444c3.928 16.862-6.53 33.722-23.387 37.703a127.078 127.078 0 0 0-31.66 11.411 57.55 57.55 0 0 1-2.363-1.558 126.952 126.952 0 0 1 33.545-12.241 28.915 28.915 0 0 0 21.067-19.805 28.898 28.898 0 0 0-6.626-28.139 28.93 28.93 0 0 0-27.693-8.333 194.77 194.77 0 0 0-41.818 14.578 44.45 44.45 0 0 1 1.358-3.443 200.984 200.984 0 0 1 39.882-13.573c16.868-3.91 33.723 6.554 37.695 23.4zm-22.029 5.178a8.794 8.794 0 0 1-6.563 10.582 136.758 136.758 0 0 0-43.856 17.594 61.694 61.694 0 0 1-1.458-2.086 139.399 139.399 0 0 1 44.76-17.971 6.286 6.286 0 1 0-2.866-12.24 155.95 155.95 0 0 0-47.376 18.7l-.654-2.313a159.547 159.547 0 0 1 47.426-18.725c4.706-1.12 9.434 1.764 10.587 6.46zm-7.343 1.735a1.257 1.257 0 0 1-.93 1.508 145.436 145.436 0 0 0-46.119 18.398c-.402-.754-.754-1.533-1.106-2.312a148.832 148.832 0 0 1 46.672-18.524 1.257 1.257 0 0 1 1.483.93zm93.269-20.737a44.628 44.628 0 0 1 4.275 10.456 98.66 98.66 0 0 1 0 20.887 44.527 44.527 0 0 1-4.275 10.607 96.249 96.249 0 0 0 0-41.95zm-71.24 15.534a23.869 23.869 0 0 1-2.934 18.046 23.889 23.889 0 0 1-14.845 10.683c-7.544 1.76-23.235 5.48-36.79 13.799a64.664 64.664 0 0 1-2.036-1.71c14.057-8.822 30.427-12.692 38.223-14.527a21.372 21.372 0 0 0 15.575-14.634 21.359 21.359 0 0 0-4.891-20.799 21.382 21.382 0 0 0-20.466-6.166 178.215 178.215 0 0 0-45.641 16.866c.1-1.039.243-2.07.427-3.092a183.322 183.322 0 0 1 44.635-16.237 23.899 23.899 0 0 1 18.055 2.932 23.879 23.879 0 0 1 10.688 14.839zm56.403-13.221a81.468 81.468 0 0 0-11.592-26.543 78.626 78.626 0 0 1 4.551 2.514 84.219 84.219 0 0 1 0 85.458c-1.458.88-2.992 1.71-4.526 2.514a81.381 81.381 0 0 0 11.567-63.943zm7.343-1.735a89.603 89.603 0 0 0-5.381-15.91 66.413 66.413 0 0 1 4.35 4.021 92.44 92.44 0 0 1 3.47 11.336 91.25 91.25 0 0 1-3.52 53.286 56.457 56.457 0 0 1-4.4 4.047 88.74 88.74 0 0 0 5.38-56.78h.101zm-14.887 3.444a73.76 73.76 0 0 0-18.281-34.033 73.377 73.377 0 0 1 4.853 1.659c24.034 28.526 24.034 70.204 0 98.73-1.584.578-3.219 1.156-4.853 1.659a74.024 74.024 0 0 0 18.281-68.015zm-26.83 6.334a46.456 46.456 0 0 1-5.726 35.121 46.495 46.495 0 0 1-28.902 20.779 146.48 146.48 0 0 0-17.2 5.027 91.704 91.704 0 0 1-3.596-1.282 138.83 138.83 0 0 1 20.117-6.233 43.999 43.999 0 0 0 32.607-30.06 43.972 43.972 0 0 0-10.14-43.163 44.02 44.02 0 0 0-42.584-12.412 225.97 225.97 0 0 0-21.877 6.334 69.427 69.427 0 0 1 6.387-4.726 248.039 248.039 0 0 1 14.912-4.046 46.54 46.54 0 0 1 35.194 5.718 46.5 46.5 0 0 1 20.807 28.943zm7.342-1.735c6.82 29.045-11.185 58.121-40.235 64.974-1.408.327-3.067.754-4.878 1.232a93.403 93.403 0 0 1-5.406-1.056c3.47-1.055 6.79-1.935 9.706-2.513 26.124-6.092 43.2-31.199 39.26-57.72-3.94-26.523-27.58-45.585-54.348-43.825a95.443 95.443 0 0 1 9.682-2.288c22.531 2.69 40.988 19.15 46.219 41.222v-.026zm-25.423-42.905c21.113 10.343 34.496 31.795 34.496 55.297 0 23.502-13.383 44.954-34.496 55.297h-6.287c22.947-8.708 38.12-30.688 38.12-55.222 0-24.534-15.173-46.513-38.12-55.221h3.722c.905-.15 1.735-.15 2.565-.15zm37.72 39.99a66.33 66.33 0 0 0-26.43-39.06c1.786.251 3.546.503 5.256.855A69.109 69.109 0 0 1 177.807 169a69.109 69.109 0 0 1-25.382 53.512c-1.735.327-3.495.604-5.28.855 22.162-15.67 32.606-43.207 26.403-69.624l.05-.05z"/>
    </g>
</svg>
