<svg xmlns="http://www.w3.org/2000/svg" width="532" height="338" viewBox="0 0 532 338">
    <g fill="#FFF" fill-rule="nonzero">
        <path d="M505.5 7a.5.5 0 0 1-1 0V1a.5.5 0 0 1 1 0v6zm0 12a.5.5 0 0 1-1 0v-6a.5.5 0 0 1 1 0v6zm0 12a.5.5 0 0 1-1 0v-6a.5.5 0 0 1 1 0v6zm0 12a.5.5 0 0 1-1 0v-6a.5.5 0 0 1 1 0v6zm0 12a.5.5 0 0 1-1 0v-6a.5.5 0 0 1 1 0v6zm0 12a.5.5 0 0 1-1 0v-6a.5.5 0 0 1 1 0v6zm0 12a.5.5 0 0 1-1 0v-6a.5.5 0 0 1 1 0v6zm0 12a.5.5 0 0 1-1 0v-6a.5.5 0 0 1 1 0v6zm0 12a.5.5 0 0 1-1 0v-6a.5.5 0 0 1 1 0v6zm0 12a.5.5 0 0 1-1 0v-6a.5.5 0 0 1 1 0v6zm0 12a.5.5 0 0 1-1 0v-6a.5.5 0 0 1 1 0v6zm0 12a.5.5 0 0 1-1 0v-6a.5.5 0 0 1 1 0v6zm0 12a.5.5 0 0 1-1 0v-6a.5.5 0 0 1 1 0v6zm0 12a.5.5 0 0 1-1 0v-6a.5.5 0 0 1 1 0v6zm0 12a.5.5 0 0 1-1 0v-6a.5.5 0 0 1 1 0v6zm0 12a.5.5 0 0 1-1 0v-6a.5.5 0 0 1 1 0v6zm0 12a.5.5 0 0 1-1 0v-6a.5.5 0 0 1 1 0v6zm0 12a.5.5 0 0 1-1 0v-6a.5.5 0 0 1 1 0v6zm0 12a.5.5 0 0 1-1 0v-6a.5.5 0 0 1 1 0v6zm0 12a.5.5 0 0 1-1 0v-6a.5.5 0 0 1 1 0v6zm0 12a.5.5 0 0 1-1 0v-6a.5.5 0 0 1 1 0v6zm0 12a.5.5 0 0 1-1 0v-6a.5.5 0 0 1 1 0v6zm0 12a.5.5 0 0 1-1 0v-6a.5.5 0 0 1 1 0v6zm0 12a.5.5 0 0 1-1 0v-6a.5.5 0 0 1 1 0v6zm0 12a.5.5 0 0 1-1 0v-6a.5.5 0 0 1 1 0v6zm0 12a.5.5 0 0 1-1 0v-6a.5.5 0 0 1 1 0v6zm0 12a.5.5 0 0 1-1 0v-6a.5.5 0 0 1 1 0v6zm0 12a.5.5 0 0 1-1 0v-6a.5.5 0 0 1 1 0v6zm-6.5 6.5a.5.5 0 0 1 0-1h6a.5.5 0 0 1 0 1h-6zm-12 0a.5.5 0 0 1 0-1h6a.5.5 0 0 1 0 1h-6zm-12 0a.5.5 0 0 1 0-1h6a.5.5 0 0 1 0 1h-6zm-12 0a.5.5 0 0 1 0-1h6a.5.5 0 0 1 0 1h-6zm-12 0a.5.5 0 0 1 0-1h6a.5.5 0 0 1 0 1h-6zm-12 0a.5.5 0 0 1 0-1h6a.5.5 0 0 1 0 1h-6zm-12 0a.5.5 0 0 1 0-1h6a.5.5 0 0 1 0 1h-6zm-12 0a.5.5 0 0 1 0-1h6a.5.5 0 0 1 0 1h-6zm-12 0a.5.5 0 0 1 0-1h6a.5.5 0 0 1 0 1h-6zm-12 0a.5.5 0 0 1 0-1h6a.5.5 0 0 1 0 1h-6zm-12 0a.5.5 0 0 1 0-1h6a.5.5 0 0 1 0 1h-6zm-12 0a.5.5 0 0 1 0-1h6a.5.5 0 0 1 0 1h-6zm-12 0a.5.5 0 0 1 0-1h6a.5.5 0 0 1 0 1h-6zm-12 0a.5.5 0 0 1 0-1h6a.5.5 0 0 1 0 1h-6zm-12 0a.5.5 0 0 1 0-1h6a.5.5 0 0 1 0 1h-6zm-12 0a.5.5 0 0 1 0-1h6a.5.5 0 0 1 0 1h-6zm-12 0a.5.5 0 0 1 0-1h6a.5.5 0 0 1 0 1h-6zm-12 0a.5.5 0 0 1 0-1h6a.5.5 0 0 1 0 1h-6zm-12 0a.5.5 0 0 1 0-1h6a.5.5 0 0 1 0 1h-6zm-12 0a.5.5 0 0 1 0-1h6a.5.5 0 0 1 0 1h-6zm-12 0a.5.5 0 0 1 0-1h6a.5.5 0 0 1 0 1h-6zm-12 0a.5.5 0 0 1 0-1h6a.5.5 0 0 1 0 1h-6zm-12 0a.5.5 0 0 1 0-1h6a.5.5 0 0 1 0 1h-6zm-12 0a.5.5 0 0 1 0-1h6a.5.5 0 0 1 0 1h-6zm-12 0a.5.5 0 0 1 0-1h6a.5.5 0 0 1 0 1h-6zm-12 0a.5.5 0 0 1 0-1h6a.5.5 0 0 1 0 1h-6zm-12 0a.5.5 0 0 1 0-1h6a.5.5 0 0 1 0 1h-6zm-12 0a.5.5 0 0 1 0-1h6a.5.5 0 0 1 0 1h-6zm-12 0a.5.5 0 0 1 0-1h6a.5.5 0 0 1 0 1h-6zm-12 0a.5.5 0 0 1 0-1h6a.5.5 0 0 1 0 1h-6zm-12 0a.5.5 0 0 1 0-1h6a.5.5 0 0 1 0 1h-6zm-12 0a.5.5 0 0 1 0-1h6a.5.5 0 0 1 0 1h-6zm-12 0a.5.5 0 0 1 0-1h6a.5.5 0 0 1 0 1h-6zm-12 0a.5.5 0 0 1 0-1h6a.5.5 0 0 1 0 1h-6zm-12 0a.5.5 0 0 1 0-1h6a.5.5 0 0 1 0 1h-6zm-12 0a.5.5 0 0 1 0-1h6a.5.5 0 0 1 0 1h-6zm-12 0a.5.5 0 0 1 0-1h6a.5.5 0 0 1 0 1h-6zm-12 0a.5.5 0 0 1 0-1h6a.5.5 0 0 1 0 1h-6zm-12 0a.5.5 0 0 1 0-1h6a.5.5 0 0 1 0 1h-6zm-12 0a.5.5 0 0 1 0-1h6a.5.5 0 0 1 0 1h-6zm-12 0a.5.5 0 0 1 0-1h6a.5.5 0 0 1 0 1h-6zm-12 0a.5.5 0 0 1 0-1h6a.5.5 0 0 1 0 1H7zM.5 331a.5.5 0 0 1 1 0v6a.5.5 0 0 1-1 0v-6zm0-12a.5.5 0 0 1 1 0v6a.5.5 0 0 1-1 0v-6zm0-12a.5.5 0 0 1 1 0v6a.5.5 0 0 1-1 0v-6zm0-12a.5.5 0 0 1 1 0v6a.5.5 0 0 1-1 0v-6zm0-12a.5.5 0 0 1 1 0v6a.5.5 0 0 1-1 0v-6zm0-12a.5.5 0 0 1 1 0v6a.5.5 0 0 1-1 0v-6zm0-12a.5.5 0 0 1 1 0v6a.5.5 0 0 1-1 0v-6zm0-12a.5.5 0 0 1 1 0v6a.5.5 0 0 1-1 0v-6zm0-12a.5.5 0 0 1 1 0v6a.5.5 0 0 1-1 0v-6zm0-12a.5.5 0 0 1 1 0v6a.5.5 0 0 1-1 0v-6zm0-12a.5.5 0 0 1 1 0v6a.5.5 0 0 1-1 0v-6zm0-12a.5.5 0 0 1 1 0v6a.5.5 0 0 1-1 0v-6zm0-12a.5.5 0 0 1 1 0v6a.5.5 0 0 1-1 0v-6zm0-12a.5.5 0 0 1 1 0v6a.5.5 0 0 1-1 0v-6zm0-12a.5.5 0 0 1 1 0v6a.5.5 0 0 1-1 0v-6zm0-12a.5.5 0 0 1 1 0v6a.5.5 0 0 1-1 0v-6zm0-12a.5.5 0 0 1 1 0v6a.5.5 0 0 1-1 0v-6zm0-12a.5.5 0 0 1 1 0v6a.5.5 0 0 1-1 0v-6zm0-12a.5.5 0 0 1 1 0v6a.5.5 0 0 1-1 0v-6zm0-12a.5.5 0 0 1 1 0v6a.5.5 0 0 1-1 0v-6zm0-12a.5.5 0 1 1 1 0v6a.5.5 0 1 1-1 0v-6zm0-12a.5.5 0 1 1 1 0v6a.5.5 0 1 1-1 0v-6zm0-12a.5.5 0 1 1 1 0v6a.5.5 0 1 1-1 0v-6zm0-12a.5.5 0 1 1 1 0v6a.5.5 0 1 1-1 0v-6zm0-12a.5.5 0 1 1 1 0v6a.5.5 0 1 1-1 0v-6zm0-12a.5.5 0 1 1 1 0v6a.5.5 0 1 1-1 0v-6zm0-12a.5.5 0 1 1 1 0v6a.5.5 0 1 1-1 0v-6zm0-12a.5.5 0 0 1 1 0v6a.5.5 0 1 1-1 0V7zM7 .5a.5.5 0 0 1 0 1H1a.5.5 0 1 1 0-1h6zm12 0a.5.5 0 1 1 0 1h-6a.5.5 0 1 1 0-1h6zm12 0a.5.5 0 1 1 0 1h-6a.5.5 0 1 1 0-1h6zm12 0a.5.5 0 1 1 0 1h-6a.5.5 0 1 1 0-1h6zm12 0a.5.5 0 1 1 0 1h-6a.5.5 0 1 1 0-1h6zm12 0a.5.5 0 1 1 0 1h-6a.5.5 0 1 1 0-1h6zm12 0a.5.5 0 1 1 0 1h-6a.5.5 0 1 1 0-1h6zm12 0a.5.5 0 1 1 0 1h-6a.5.5 0 1 1 0-1h6zm12 0a.5.5 0 0 1 0 1h-6a.5.5 0 1 1 0-1h6zm12 0a.5.5 0 0 1 0 1h-6a.5.5 0 0 1 0-1h6zm12 0a.5.5 0 0 1 0 1h-6a.5.5 0 0 1 0-1h6zm12 0a.5.5 0 0 1 0 1h-6a.5.5 0 0 1 0-1h6zm12 0a.5.5 0 0 1 0 1h-6a.5.5 0 0 1 0-1h6zm12 0a.5.5 0 0 1 0 1h-6a.5.5 0 0 1 0-1h6zm12 0a.5.5 0 0 1 0 1h-6a.5.5 0 0 1 0-1h6zm12 0a.5.5 0 0 1 0 1h-6a.5.5 0 0 1 0-1h6zm12 0a.5.5 0 0 1 0 1h-6a.5.5 0 0 1 0-1h6zm12 0a.5.5 0 0 1 0 1h-6a.5.5 0 0 1 0-1h6zm12 0a.5.5 0 0 1 0 1h-6a.5.5 0 0 1 0-1h6zm12 0a.5.5 0 0 1 0 1h-6a.5.5 0 0 1 0-1h6zm12 0a.5.5 0 0 1 0 1h-6a.5.5 0 0 1 0-1h6zm12 0a.5.5 0 0 1 0 1h-6a.5.5 0 0 1 0-1h6zm12 0a.5.5 0 0 1 0 1h-6a.5.5 0 0 1 0-1h6zm12 0a.5.5 0 0 1 0 1h-6a.5.5 0 0 1 0-1h6zm12 0a.5.5 0 0 1 0 1h-6a.5.5 0 0 1 0-1h6zm12 0a.5.5 0 0 1 0 1h-6a.5.5 0 0 1 0-1h6zm12 0a.5.5 0 0 1 0 1h-6a.5.5 0 0 1 0-1h6zm12 0a.5.5 0 0 1 0 1h-6a.5.5 0 0 1 0-1h6zm12 0a.5.5 0 0 1 0 1h-6a.5.5 0 0 1 0-1h6zm12 0a.5.5 0 0 1 0 1h-6a.5.5 0 0 1 0-1h6zm12 0a.5.5 0 0 1 0 1h-6a.5.5 0 0 1 0-1h6zm12 0a.5.5 0 0 1 0 1h-6a.5.5 0 0 1 0-1h6zm12 0a.5.5 0 0 1 0 1h-6a.5.5 0 0 1 0-1h6zm12 0a.5.5 0 0 1 0 1h-6a.5.5 0 0 1 0-1h6zm12 0a.5.5 0 0 1 0 1h-6a.5.5 0 0 1 0-1h6zm12 0a.5.5 0 0 1 0 1h-6a.5.5 0 0 1 0-1h6zm12 0a.5.5 0 0 1 0 1h-6a.5.5 0 0 1 0-1h6zm12 0a.5.5 0 0 1 0 1h-6a.5.5 0 0 1 0-1h6zm12 0a.5.5 0 0 1 0 1h-6a.5.5 0 0 1 0-1h6zm12 0a.5.5 0 0 1 0 1h-6a.5.5 0 0 1 0-1h6zm12 0a.5.5 0 0 1 0 1h-6a.5.5 0 0 1 0-1h6zm12 0a.5.5 0 0 1 0 1h-6a.5.5 0 0 1 0-1h6zM490.75 321.5h-474v-305h474v305zm-1-304h-472v303h472v-303zM527.355 240.75V98.912l3.272 3.11c.218.215.873.215 1.091 0a.644.644 0 0 0 0-1.072l-4.69-4.29a1.005 1.005 0 0 0-1.092 0l-4.69 4.29c-.328.215-.328.75 0 .965.327.215.763.215 1.09 0l3.382-3.11v141.836c0 .536.327.858.764.858.436 0 .873-.215.873-.75z"/>
    </g>
</svg>
