<svg xmlns="http://www.w3.org/2000/svg" xmlns:xlink="http://www.w3.org/1999/xlink" width="192" height="97" viewBox="0 0 192 97">
    <defs>
        <path id="a" d="M0 0h145v97H0z"/>
    </defs>
    <g fill="none" fill-rule="evenodd">
        <path fill="#E1FFEC" d="M183.952 10c4.445 0 8.048 3.621 8.048 8.089 0 4.467-3.603 8.088-8.048 8.088h-45.988c4.445 0 8.048 3.621 8.048 8.089 0 4.467-3.603 8.088-8.048 8.088h25.293c4.445 0 8.048 3.621 8.048 8.089 0 4.467-3.603 8.088-8.048 8.088h-11.696c-5.605 0-10.148 3.621-10.148 8.089 0 2.978 2.3 5.674 6.898 8.088 4.445 0 8.048 3.621 8.048 8.089 0 4.467-3.603 8.088-8.048 8.088H52.886c-4.445 0-8.048-3.621-8.048-8.088 0-4.468 3.603-8.089 8.048-8.089H8.048C3.603 74.708 0 71.087 0 66.62c0-4.468 3.603-8.089 8.048-8.089h45.988c4.445 0 8.048-3.621 8.048-8.088 0-4.468-3.603-8.089-8.048-8.089H25.293c-4.444 0-8.047-3.621-8.047-8.088 0-4.468 3.603-8.089 8.047-8.089h45.988c-4.444 0-8.047-3.621-8.047-8.088 0-4.468 3.603-8.089 8.047-8.089h112.671zm0 32.354c4.445 0 8.048 3.621 8.048 8.089 0 4.467-3.603 8.088-8.048 8.088s-8.048-3.621-8.048-8.088c0-4.468 3.603-8.089 8.048-8.089z"/>
        <g transform="translate(31.571 8)">
            <rect width="80" height="128" x="24" y="-24" fill="#07AE44" rx="2" transform="rotate(-90 64 40)"/>
            <path fill="#E5FFEE" d="M0 44h13.5v36H2a2 2 0 0 1-2-2V44z"/>
            <rect width="73" height="112.5" x="31.125" y="-19.75" fill="#E5FFEE" rx="2" transform="rotate(-90 67.625 36.5)"/>
            <path stroke="#1BD75F" stroke-linecap="round" stroke-linejoin="round" stroke-width="2.055" d="M27.125 62H108M33 6.938h23"/>
            <path stroke="#979C99" stroke-linecap="round" stroke-linejoin="round" stroke-width="2.055" d="M27.062 52H78.5M88 52h19.718M6.75 73.375V51"/>
        </g>
        <path stroke="#07AE44" stroke-width=".5" d="M58.696 15h80.875v39H58.696z"/>
        <g transform="translate(23)">
            <mask id="b" fill="#fff">
                <use xlink:href="#a"/>
            </mask>
            <path fill="#27A846" d="M9.358 1h-6a.5.5 0 0 1 0-1h6a.5.5 0 0 1 0 1m12 0h-6a.5.5 0 0 1 0-1h6a.5.5 0 0 1 0 1m12 0h-6a.5.5 0 0 1 0-1h6a.5.5 0 0 1 0 1m12 0h-6a.5.5 0 0 1 0-1h6a.5.5 0 0 1 0 1m12 0h-6a.5.5 0 0 1 0-1h6a.5.5 0 0 1 0 1m12 0h-6a.5.5 0 0 1 0-1h6a.5.5 0 0 1 0 1m12 0h-6a.5.5 0 1 1 0-1h6a.5.5 0 0 1 0 1m12 0h-6a.5.5 0 1 1 0-1h6a.5.5 0 0 1 0 1m12 0h-6a.5.5 0 1 1 0-1h6a.5.5 0 0 1 0 1m12 0h-6a.5.5 0 1 1 0-1h6a.5.5 0 0 1 0 1m12 0h-6a.5.5 0 1 1 0-1h6a.5.5 0 0 1 0 1m12 0h-6a.5.5 0 1 1 0-1h6a.5.5 0 0 1 0 1m3.142 9.715a.5.5 0 0 1-.5-.5v-6a.5.5 0 1 1 1 0v6a.5.5 0 0 1-.5.5M.5 11a.5.5 0 0 1-.5-.5v-6a.5.5 0 1 1 1 0v6a.5.5 0 0 1-.5.5m144 11.715a.5.5 0 0 1-.5-.5v-6a.5.5 0 1 1 1 0v6a.5.5 0 0 1-.5.5M.5 23a.5.5 0 0 1-.5-.5v-6a.5.5 0 1 1 1 0v6a.5.5 0 0 1-.5.5m144 11.715a.5.5 0 0 1-.5-.5v-6a.5.5 0 1 1 1 0v6a.5.5 0 0 1-.5.5M.5 35a.5.5 0 0 1-.5-.5v-6a.5.5 0 1 1 1 0v6a.5.5 0 0 1-.5.5m144 11.715a.5.5 0 0 1-.5-.5v-6a.5.5 0 1 1 1 0v6a.5.5 0 0 1-.5.5M.5 47a.5.5 0 0 1-.5-.5v-6a.5.5 0 1 1 1 0v6a.5.5 0 0 1-.5.5m144 11.715a.5.5 0 0 1-.5-.5v-6a.5.5 0 0 1 1 0v6a.5.5 0 0 1-.5.5M.5 59a.5.5 0 0 1-.5-.5v-6a.5.5 0 1 1 1 0v6a.5.5 0 0 1-.5.5m144 11.715a.5.5 0 0 1-.5-.5v-6a.5.5 0 0 1 1 0v6a.5.5 0 0 1-.5.5M.5 71a.5.5 0 0 1-.5-.5v-6a.5.5 0 1 1 1 0v6a.5.5 0 0 1-.5.5m144 11.715a.5.5 0 0 1-.5-.5v-6a.5.5 0 0 1 1 0v6a.5.5 0 0 1-.5.5M.5 83a.5.5 0 0 1-.5-.5v-6a.5.5 0 1 1 1 0v6a.5.5 0 0 1-.5.5m144 11.715a.5.5 0 0 1-.5-.5v-6a.5.5 0 0 1 1 0v6a.5.5 0 0 1-.5.5M.5 95a.5.5 0 0 1-.5-.5v-6a.5.5 0 1 1 1 0v6a.5.5 0 0 1-.5.5m7.427 2H2.5c-.24 0-.477-.035-.706-.102a.5.5 0 0 1 .282-.959c.137.04.28.061.424.061h5.427a.499.499 0 1 1 0 1m12 0h-6a.5.5 0 0 1 0-1h6a.499.499 0 1 1 0 1m12 0h-6a.5.5 0 0 1 0-1h6a.499.499 0 1 1 0 1m12 0h-6a.5.5 0 0 1 0-1h6a.499.499 0 1 1 0 1m12 0h-6a.5.5 0 0 1 0-1h6a.499.499 0 1 1 0 1m12 0h-6a.5.5 0 0 1 0-1h6a.499.499 0 1 1 0 1m12 0h-6a.5.5 0 1 1 0-1h6a.5.5 0 1 1 0 1m12 0h-6a.5.5 0 1 1 0-1h6a.5.5 0 1 1 0 1m12 0h-6a.5.5 0 1 1 0-1h6a.5.5 0 1 1 0 1m12 0h-6a.5.5 0 1 1 0-1h6a.5.5 0 1 1 0 1m12 0h-6a.5.5 0 1 1 0-1h6a.5.5 0 1 1 0 1m12 0h-6a.5.5 0 1 1 0-1h6a.5.5 0 1 1 0 1" mask="url(#b)"/>
        </g>
        <path fill="#FFF" fill-opacity=".7" d="M25 2h141v93H25z"/>
    </g>
</svg>
